<?xml version="1.0" encoding="UTF-8"?>
<svg width="128" height="123" viewBox="0 0 128 123" fill="none" xmlns="http://www.w3.org/2000/svg">
<path d="M48.6936 80.3994C46.921 80.334 45.5666 81.9331 45.4584 83.4924C45.3475 85.0915 46.995 86.6536 48.4319 86.5028C50.0395 86.5426 51.6073 85.1171 51.6557 83.5692C51.7126 81.7054 50.4692 80.4677 48.6936 80.3994Z" fill="white"/>
<path d="M89.2258 30.275C89.4705 30.3404 89.6754 30.5623 89.8916 30.7217C90.1563 30.9152 90.4123 31.1143 90.6741 31.3107C90.7083 31.2708 90.7424 31.2282 90.7766 31.1883C90.216 30.2351 88.119 28.286 87.2227 28.3742C87.695 29.2193 88.1901 30.0018 89.2258 30.275Z" fill="white"/>
<path d="M78.8373 61.0648C78.4276 61.4177 78.419 61.4917 78.6836 62.1575C78.9397 62.0038 79.1844 61.9156 79.3466 61.7506C79.7507 61.3295 80.1519 60.8998 80.4933 60.4275C81.1563 59.5084 81.6713 58.5125 81.8335 57.3744C81.8506 57.2492 81.8022 57.1155 81.7624 56.8508C81.6286 57.0472 81.5717 57.1126 81.5347 57.1866C81.236 57.7841 80.9656 58.393 80.6413 58.9763C80.1917 59.793 79.5458 60.4531 78.8373 61.0648Z" fill="white"/>
<path d="M79.4793 62.6355C79.098 62.9628 79.0525 63.3611 79.1151 63.7965C79.1748 64.209 79.4281 64.3342 79.7923 64.1322C80.0085 64.0127 80.2077 63.8534 80.387 63.6855C81.6162 62.5246 82.4584 61.1445 82.8055 59.4885C82.9506 58.7943 83.0502 58.1028 82.8568 57.3459C82.7771 57.4854 82.6746 57.6134 82.6234 57.7614C82.5039 58.1 82.4271 58.4528 82.3019 58.7886C81.9661 59.6906 81.6731 60.6153 80.9105 61.2954C80.4211 61.7307 79.9744 62.2116 79.4793 62.6355Z" fill="white"/>
<path d="M80.4523 66.3517C80.3527 66.4058 80.2332 66.4655 80.1877 66.5566C80.1166 66.6988 80.0995 66.8695 80.0625 67.026C80.2247 67.063 80.4182 67.174 80.5462 67.1228C80.8364 67.009 81.1381 66.8582 81.36 66.6476C81.9291 66.107 82.5067 65.5607 82.9847 64.9432C83.4343 64.3628 83.7757 63.6969 84.1286 63.0482C84.2452 62.8376 84.2509 62.5673 84.3078 62.3226C84.2623 62.3055 84.2139 62.2856 84.1684 62.2686C84.0688 62.3738 83.9265 62.4649 83.8782 62.5901C83.6278 63.2474 83.1782 63.7567 82.7486 64.3059C82.097 65.1367 81.3799 65.8452 80.4523 66.3517Z" fill="white"/>
<path d="M86.4492 65.3872C86.4492 65.4697 86.4492 65.5523 86.4492 65.6319C86.4862 65.5579 86.5232 65.484 86.563 65.41C86.5232 65.4043 86.4862 65.3957 86.4492 65.3872Z" fill="white"/>
<path d="M72.2581 36.1963C72.1556 36.5747 72.352 36.7938 72.6223 36.9844C73.1031 37.3259 73.6779 37.3942 74.2413 37.4454C75.0636 37.5194 75.8717 37.4625 76.6485 36.9816C76.2814 36.4381 75.8262 36.091 75.223 35.9772C74.8104 35.9003 74.6197 36.1849 74.7961 36.5576C74.8587 36.6885 74.9669 36.8023 75.0778 36.9588C74.4746 37.2263 73.9738 37.0641 73.4816 36.8137C72.9552 36.5462 73.0007 36.0597 73.0519 35.5276C72.4829 35.63 72.3804 35.7467 72.2581 36.1963Z" fill="white"/>
<path d="M52.6114 50.0475C52.748 50.1699 53.0439 50.2097 53.2231 50.1556C53.3256 50.1215 53.391 49.8199 53.3882 49.6406C53.3768 48.6447 53.4109 47.6659 53.9715 46.7839C54.0796 46.616 54.1052 46.3969 54.2133 46.229C54.5263 45.7396 54.8137 45.2274 55.195 44.7949C55.673 44.2571 56.2535 43.8104 56.7543 43.2926C57.0787 42.9568 57.44 42.6011 57.605 42.1885C57.8782 41.5056 58.0034 40.7658 58.1912 40.0517C58.3278 39.5309 58.4444 39.0074 58.6009 38.4952C58.6721 38.2647 58.8086 37.9859 59.1245 38.0741C59.4773 38.1737 59.3208 38.4639 59.281 38.6972C59.1387 39.5139 58.9623 40.3277 59.0676 41.1642C59.1017 41.4345 59.1103 41.7048 59.5029 41.9125C59.6793 41.7276 59.9013 41.5796 60.0009 41.3719C60.2342 40.891 60.4135 40.3846 60.6098 39.8866C60.6951 39.6704 60.7748 39.4513 60.8545 39.2436C61.4008 39.3232 61.4036 39.6476 61.3126 39.9634C61.176 40.4415 61.2016 40.8711 61.4492 41.3207C61.6455 41.6792 61.5658 41.813 61.1988 42.0235C60.7663 42.2739 60.3139 42.4902 59.8927 42.7576C59.2042 43.1901 58.4444 43.5629 57.8811 44.1206C57.1982 44.7949 56.5096 45.4209 55.6816 45.9103C55.4226 46.064 55.2206 46.3371 55.047 46.5875C54.5263 47.3415 54.4694 48.2236 54.3784 49.0943C54.3158 49.6947 54.2646 50.2979 54.1934 50.8983C54.1024 51.6779 53.667 52.156 52.8789 52.3381C52.435 52.4405 52.4065 52.5116 52.4549 52.9413C52.5175 53.4762 52.6057 54.0083 52.6427 54.5432C52.6882 55.1891 52.8902 55.7668 53.2658 56.2932C54.3186 57.7699 55.7868 58.5723 57.5709 58.891C58.2083 59.0048 58.7774 58.9138 59.3493 58.6122C60.4135 58.0545 61.5032 57.5423 62.5873 57.0187C63.1877 56.7285 63.7397 56.3899 64.0726 55.7838C64.2917 55.3855 64.3088 55.027 64.0015 54.6656C63.3556 53.9059 62.667 53.2059 61.7593 52.7307C61.0081 52.3381 60.5699 51.6893 60.5045 50.8528C60.4334 49.9821 60.8317 49.3476 61.6227 48.9464C62.0951 48.7045 62.4849 48.4057 62.6955 47.8765C62.8889 47.3842 63.2247 47.3842 63.5605 47.8025C63.6885 47.9618 63.7084 48.2378 64.0243 48.2378C64.1011 47.9675 64.1495 47.7001 64.2576 47.4582C64.3942 47.1452 64.6901 47.1111 64.8949 47.3899C65.0258 47.5663 65.1197 47.7826 65.1795 47.9931C65.2563 48.2663 65.4441 48.3659 65.6888 48.3317C65.9051 48.3004 66.1725 48.2521 66.3091 48.1098C66.9579 47.4383 67.7176 46.8123 67.6692 45.7453C67.6664 45.6514 67.746 45.5518 67.8115 45.3981C68.0989 45.5518 68.3436 45.6855 68.6423 45.8449C68.6679 45.6827 68.7248 45.5689 68.6964 45.4807C68.5427 44.977 68.685 44.573 69.0208 44.1775C69.1431 44.0324 69.1517 43.7677 69.1545 43.5572C69.1602 43.358 69.0464 43.156 69.0663 42.9625C69.1004 42.6552 68.8956 42.3024 69.2171 42.0007C69.5955 42.291 69.6126 42.7178 69.7264 43.0848C69.8829 43.5856 69.9541 44.1006 69.5898 44.5616C69.2655 44.9713 69.3594 45.3526 69.6781 45.7168C69.7976 45.8534 69.8943 46.0071 70.0167 46.1379C70.4207 46.5733 70.58 47.0912 70.6199 47.6716C70.6569 48.2293 70.7252 48.7899 70.8304 49.3362C71.1121 50.7731 71.0125 52.0763 70.0992 53.3624C69.3537 54.4123 69.0663 56.0428 70.5117 56.8622C70.5886 56.9049 70.6313 56.9988 70.6995 57.0557C71.3085 57.5451 71.9743 57.952 72.7568 58.063C73.4766 58.1654 74.2108 58.1996 74.9392 58.2053C75.6249 58.211 76.2082 57.9264 76.7346 57.4825C77.3549 56.9561 78.0264 56.4923 78.6553 55.9773C78.9113 55.7668 79.1646 55.5277 79.3353 55.2517C79.7963 54.5091 79.967 53.6754 80.0068 52.8161C80.0239 52.4462 79.9869 52.0734 79.9698 51.5783C79.7109 51.7235 79.5629 51.8031 79.4178 51.8913C79.1304 52.0677 78.863 52.284 78.5557 52.4177C78.0378 52.6454 77.6651 52.4007 77.6167 51.8373C77.5882 51.5015 77.5683 51.1658 77.5427 50.83C77.4659 49.817 77.4431 48.8183 77.9012 47.8594C78.089 47.4696 78.0236 47.0456 77.8642 46.6217C77.4374 45.4693 76.6863 44.5559 75.7615 43.7706C75.5054 43.5543 75.1754 43.4291 74.888 43.2442C74.6803 43.1104 74.4469 42.9739 74.592 42.6353C74.9619 42.4845 75.3375 42.4958 75.6989 42.6808C76.066 42.8686 76.4216 42.8601 76.82 42.7462C77.2781 42.6154 77.6565 42.3735 77.9638 42.0491C78.8488 41.113 79.7251 40.1712 80.5617 39.1952C80.9458 38.7456 81.2446 38.2221 81.4438 37.5989C80.8804 37.6672 80.482 37.8038 80.2202 38.2847C79.7763 39.0984 79.0622 39.5139 78.0947 39.4541C77.9155 39.4427 77.7163 39.4427 77.5541 39.5053C76.6606 39.8582 75.7473 40.1114 74.7969 40.2707C74.1112 40.3846 73.9632 40.6634 74.0628 41.3691C74.1169 41.7475 73.986 42.0491 73.7043 42.254C73.5705 42.3536 73.3088 42.3707 73.1494 42.3137C73.0584 42.2824 72.9958 42.0121 73.0185 41.8642C73.1409 41.0504 72.7966 40.376 72.071 40.0773C71.3198 39.7671 71.206 39.5622 71.2003 38.7826C71.1975 38.3871 71.169 37.966 71.0296 37.6018C70.7792 36.9502 70.4435 36.3327 70.5487 35.6015C70.5601 35.5218 70.5089 35.4307 70.4833 35.3454C70.3012 34.7365 70.0337 34.1816 69.5898 33.7007C69.0891 33.1601 69.1204 33.0435 69.7463 32.6081C70.3866 32.1642 71.0723 31.8342 71.869 31.7488C72.3726 31.6947 72.8393 31.5411 73.2319 31.1854C73.3714 31.0574 73.5876 30.9805 73.7811 30.9464C74.9221 30.7387 76.0119 30.807 76.9395 31.6037C77.0419 31.6919 77.1643 31.763 77.2866 31.8171C77.3919 31.8626 77.5114 31.8711 77.6309 31.8968C77.7049 31.2366 76.7005 31.2281 76.9053 30.4485C77.1557 30.5452 77.4061 30.5907 77.5882 30.7216C78.7577 31.5724 79.9385 32.4146 81.0653 33.3223C81.6941 33.8288 82.1921 34.4661 81.788 35.3311C82.3571 36.0254 82.3571 36.0254 82.1494 37.2518C82.2917 37.1465 82.4425 37.0953 82.4709 37.0042C82.562 36.7083 82.6673 36.3953 82.6559 36.0937C82.6417 35.6954 82.525 35.3027 82.451 34.9072C82.397 34.6056 82.2348 34.304 82.4681 33.9511C82.8693 33.8999 83.3473 33.8032 83.3758 33.2711C83.3957 32.8813 83.0002 32.7618 82.7071 32.6024C82.5165 32.7077 82.3457 32.8016 82.0953 32.9382C81.8307 32.5085 81.6145 32.0902 81.3328 31.7203C81.0397 31.3362 80.6812 31.0005 80.2032 30.4854C80.4052 30.4257 80.61 30.3631 80.7637 30.3176C80.4905 29.7826 79.8503 29.8139 79.7365 29.2192C80.4393 29.0058 80.9174 29.6176 81.6828 29.6802C81.4096 29.3985 81.2702 29.1936 81.0767 29.0627C80.3397 28.5591 79.6455 27.9843 78.7634 27.714C78.3736 27.5945 77.9923 27.4409 77.6138 27.2844C77.5057 27.2388 77.4261 27.1279 77.3236 27.0368C77.5427 26.7352 77.7817 26.8035 78.0179 26.9002C78.7321 27.1962 79.4434 27.4949 80.1548 27.7937C80.667 28.0071 81.1791 28.2234 81.7368 28.4567C81.7482 28.0384 81.5007 27.8022 81.2673 27.6287C80.7438 27.2388 80.2032 26.849 79.617 26.5673C78.8914 26.2174 78.2455 25.6881 77.4033 25.5828C77.3322 25.5743 77.2752 25.4747 77.1273 25.3438C77.3236 25.2357 77.463 25.0963 77.6025 25.0963C77.7931 25.0963 77.998 25.1788 78.1744 25.2698C79.1788 25.7905 80.1775 26.3255 81.182 26.8462C81.3043 26.9088 81.4551 26.9259 81.5917 26.9657C81.6486 26.4507 81.4181 26.1576 81.0596 25.8987C80.8064 25.7166 80.5759 25.4832 80.3938 25.2328C80.0922 24.8174 79.7024 24.5243 79.2386 24.3166C77.9098 23.7248 76.5838 23.1273 75.2522 22.544C74.0287 22.0062 72.7425 21.7216 71.4052 21.7074C70.876 21.7017 70.324 21.7017 69.9028 22.1371C70.1191 22.3476 70.5004 22.211 70.6028 22.5838C70.1276 23.1415 69.3138 22.6691 68.7846 23.0391C68.7931 23.0931 68.8045 23.1472 68.813 23.2012C69.1374 23.2012 69.4618 23.2012 69.9142 23.2012C69.7264 23.4772 69.6126 23.6451 69.5045 23.8045C70.0053 24.0662 70.5004 24.3252 71.152 24.6638C70.8418 24.8032 70.6995 24.9028 70.543 24.9312C70.2528 24.9825 69.9512 24.9853 69.6581 25.0166C69.146 25.0707 68.9923 25.2215 68.9183 25.7223C68.9041 25.8275 68.8956 25.9328 68.8756 26.1092C68.5228 26.1462 68.1956 26.1974 67.8655 26.2145C67.1713 26.2458 67.0461 26.3596 67.0062 27.0511C67.0034 27.1165 66.9806 27.1791 66.9522 27.3214C66.7672 27.3299 66.5737 27.3271 66.3831 27.347C66.2095 27.3669 65.9677 27.3498 65.8795 27.4523C65.5408 27.8449 64.9291 27.8819 64.6901 28.4168C64.5706 28.6786 64.1153 28.5876 64.0612 28.2916C63.9702 27.7937 63.9446 27.2872 64.1779 26.8405C64.5649 26.7608 64.5507 27.364 64.9832 27.1677C64.9092 26.8604 64.8352 26.5531 64.7498 26.206C64.4511 26.1861 64.1295 26.1974 63.8222 26.1377C63.5348 26.0836 63.0938 26.1974 63.0853 25.5914C63.3328 25.5914 63.5548 25.6027 63.771 25.5885C64.0413 25.5714 64.3145 25.5544 64.5791 25.5003C64.9234 25.432 65.0913 25.2015 65.134 24.806C64.1125 24.9796 63.1393 25.1361 61.9613 25.156C62.5333 24.5471 61.7479 24.5613 61.711 24.2028C61.9215 23.904 62.2487 23.9012 62.5617 23.8585C62.943 23.8045 63.33 23.7618 63.7056 23.6764C63.8535 23.6423 63.9759 23.5057 64.1096 23.4175C64.0925 23.3691 64.0755 23.3207 64.0556 23.2724C63.7454 23.2866 63.4353 23.3094 63.1251 23.3122C62.5816 23.3151 62.0353 23.3151 61.4947 23.2866C61.3809 23.2809 61.2728 23.1472 61.0394 22.9878C61.4691 22.8683 61.7394 22.7915 62.0581 22.7004C61.6341 22.359 61.1732 22.4927 60.7606 22.4501C59.0164 22.2679 57.2721 22.0574 55.5137 22.3647C54.3385 22.5696 53.1975 22.8484 52.1476 23.426C51.9285 23.5455 51.7094 23.6906 51.4704 23.7447C50.7704 23.9126 50.3692 24.3878 50.153 24.9967C49.8286 25.9072 49.2339 26.6385 48.6591 27.3897C48.3319 27.8193 47.9535 28.212 47.6263 28.6416C47.3417 29.0144 47.0088 29.3928 47.0458 29.8964C47.0856 30.4741 47.1056 31.0744 47.2791 31.6179C47.6063 32.6394 47.7884 33.6495 47.6832 34.7251C47.6177 35.3966 47.7145 36.0681 48.0644 36.677C48.4457 37.34 48.8099 38.0087 49.2054 38.6631C49.4388 39.0472 49.5611 39.4285 49.4473 39.8752C49.0888 41.3093 49.2311 42.7121 49.7148 44.1006C50.0448 45.0539 50.503 45.9786 50.5684 46.9973C50.6623 48.4171 51.6724 49.2081 52.6114 50.0475ZM61.5288 55.5306C61.8049 55.4964 62.0723 55.5021 62.3768 55.8607C62.1349 55.9944 61.9613 56.1623 61.7679 56.185C61.1248 56.2619 60.5472 56.4753 59.9753 56.7712C59.1245 57.2122 58.2225 57.3403 57.2579 57.124C55.9149 56.8224 54.7084 56.3102 53.8634 55.1891C53.6471 54.9046 53.4678 54.5831 53.3313 54.2559C53.1378 53.7892 53.2402 53.5616 53.6756 53.3055C53.7922 53.2372 53.9146 53.1718 54.0426 53.1234C54.8308 52.8275 55.1096 52.1986 55.195 51.4418C55.2889 50.591 55.3942 49.7431 55.8324 48.9862C55.9746 48.7415 56.1653 48.511 56.3815 48.3261C56.7571 48.0017 57.1754 47.7257 57.5681 47.4212C58.4046 46.7668 58.8257 45.8534 59.2042 44.9087C59.3521 44.5388 59.5541 44.1775 59.7903 43.8559C59.8814 43.7279 60.1374 43.7165 60.3167 43.6511C60.3736 43.8076 60.4732 43.9641 60.4789 44.1206C60.4846 44.2913 60.4106 44.4706 60.3537 44.6384C60.0919 45.4294 59.8984 46.229 59.907 47.0684C59.9098 47.3359 59.8529 47.6033 59.8102 47.8679C59.722 48.4086 59.4432 48.8212 58.9424 49.0829C58.5213 49.3049 58.1115 49.5524 57.6876 49.7687C57.2835 49.9735 57.0075 50.2638 56.8482 50.6934C56.4868 51.658 56.1511 52.6368 55.4511 53.4421C55.2718 53.6498 55.3259 53.8916 55.5052 54.1193C56.521 55.4054 57.8185 56.0285 59.4972 55.7924C60.1716 55.7013 60.8488 55.616 61.5288 55.5306ZM71.078 42.3223C71.2174 42.3621 71.4137 42.3593 71.482 42.4503C71.6812 42.7178 71.8775 43.008 71.9885 43.3182C72.2674 44.112 72.6742 44.812 73.2348 45.4551C73.5819 45.8534 73.7896 46.3713 74.0656 46.8322C74.316 47.2533 74.5266 47.7086 74.8339 48.087C75.7757 49.2508 76.1428 50.6451 76.4444 52.0393C76.655 53.0153 76.4757 54.0026 75.9493 54.8961C75.8355 55.0896 75.7444 55.2973 75.6249 55.4879C75.5196 55.6586 75.4087 55.835 75.2664 55.9745C74.4071 56.8167 72.623 56.9561 71.6528 56.2391C71.3142 55.9915 71.0268 55.6757 70.6995 55.3769C71.004 54.9501 71.3227 54.8477 71.6755 54.8392C72.4865 54.8192 73.0043 54.3924 73.4425 53.7551C74.3018 52.5088 74.5892 51.1771 74.1681 49.7345C73.875 48.7244 73.562 47.7115 73.1409 46.7497C72.8763 46.1465 72.4096 45.6229 72.0056 45.0823C71.4678 44.3624 71.132 43.5686 71.0012 42.6893C70.9869 42.5727 71.0524 42.4446 71.078 42.3223ZM65.9961 31.083C66.2664 31.0005 66.3717 31.1854 66.4315 31.3903C66.6079 32.0134 66.7843 32.6337 66.9408 33.2625C67.1172 33.9767 67.2765 34.6966 67.433 35.4165C67.4729 35.6015 67.4814 35.7949 67.507 35.9856C67.4387 36.0055 67.3704 36.0226 67.3021 36.0425C67.1855 35.812 67.0688 35.5815 66.955 35.3482C66.3945 34.2214 65.9705 33.0463 65.686 31.8228C65.6717 31.7573 65.6404 31.6947 65.6291 31.6293C65.5636 31.3277 65.7258 31.1626 65.9961 31.083ZM64.508 31.5667C64.7726 31.5297 64.9462 31.6947 64.9917 31.9394C65.0514 32.2695 65.0913 32.6024 65.114 32.9382C65.2108 34.358 65.2961 35.7807 65.3815 37.2034C65.3929 37.3912 65.4384 37.6018 65.1283 37.7953C65.0002 37.2091 64.8551 36.6827 64.7754 36.1449C64.5791 34.8417 64.4141 33.5357 64.2377 32.2325C64.2291 32.1671 64.2177 32.0988 64.2177 32.0333C64.2206 31.8171 64.2576 31.6008 64.508 31.5667ZM61.8959 34.9641C62.1178 34.0763 62.3569 33.1943 62.5902 32.3093C62.6129 32.224 62.6499 32.1415 62.6784 32.0561C62.7666 31.7943 62.9231 31.6065 63.2275 31.7061C63.5064 31.7943 63.495 32.0419 63.4552 32.2667C63.4239 32.4402 63.3727 32.6166 63.3015 32.7788C62.8918 33.715 62.4735 34.6454 62.0609 35.5787C61.9926 35.5616 61.9215 35.5446 61.8532 35.5275C61.8674 35.3397 61.8532 35.1434 61.8959 34.9641ZM55.2861 25.4064C56.2023 25.156 57.1356 25.2499 58.0632 25.3154C58.3221 25.3324 58.5896 25.4519 58.8229 25.58C58.9225 25.634 58.9964 25.8361 58.9822 25.9613C58.9737 26.0495 58.803 26.1263 58.7005 26.2031C58.6863 26.2145 58.655 26.2145 58.6351 26.2117C57.7957 26.095 57.0246 26.3568 56.2393 26.5844C56.0714 26.6328 55.7299 26.5247 55.656 26.3909C55.4596 26.0352 55.1808 26.1149 54.8934 26.132C54.4524 26.1576 54.0085 26.297 53.3967 26.1235C54.0483 25.6369 54.6857 25.5686 55.2861 25.4064ZM53.4821 29.0713C54.2333 28.7583 54.9987 28.4538 55.7897 28.2632C57.2977 27.9018 58.8143 27.9587 60.2968 28.451C60.6496 28.5676 60.6468 28.579 60.6638 29.0741C59.9582 29.1453 59.2468 29.2107 58.5383 29.2904C58.3392 29.3131 58.0888 29.3188 57.9579 29.4355C57.275 30.0359 56.4697 30.0729 55.6446 29.9505C54.7511 29.8168 53.8833 29.8054 53.0325 30.1554C52.8163 30.2436 52.5716 30.4001 52.3041 30.07C52.5687 29.6091 52.9927 29.2762 53.4821 29.0713ZM58.6408 33.2739C58.4757 33.567 57.8185 33.8402 57.5083 33.7235C56.999 33.5329 56.5295 33.6097 56.0543 33.8089C55.599 34.0023 55.1722 34.0621 54.9247 33.53C54.2617 33.493 53.6841 33.6438 53.1463 33.954C53.0695 33.9995 52.9756 34.0564 52.8988 34.045C52.7793 34.028 52.6341 33.9796 52.563 33.8971C52.5203 33.8459 52.5573 33.6581 52.6199 33.604C52.8219 33.4247 53.0325 33.2426 53.2744 33.1288C54.4495 32.574 55.6958 32.2581 56.9791 32.0476C57.7644 31.9195 58.2111 32.3691 58.6493 32.8528C58.7233 32.9325 58.7034 33.163 58.6408 33.2739ZM52.4833 37.0782C52.9585 36.7965 53.4252 36.4978 53.8662 36.1506C53.337 36.0169 53.0012 36.6685 52.4435 36.4693C53.3 34.947 56.8596 34.4036 58.544 35.1035C58.4217 35.3795 58.3022 35.6555 58.14 36.0226C58.5213 36.0823 58.8599 36.1364 59.3009 36.2075C59.1473 36.4636 59.0363 36.6941 58.8855 36.899C58.1258 37.9347 57.0787 38.646 56.0088 39.3204C55.2946 39.77 54.2077 39.6448 53.4479 39.0558C53.1805 38.8481 52.9158 38.6261 52.6967 38.3729C52.435 38.0684 52.1732 37.9119 51.7521 38.0513C51.5529 38.1168 51.311 38.0627 51.0891 38.0627C51.072 38.0087 51.0521 37.9574 51.035 37.9034C51.5188 37.6274 52.0053 37.3599 52.4833 37.0782ZM49.877 38.2021C49.655 37.9375 49.5384 37.5904 49.4302 37.3827C49.4473 37.2205 49.4445 37.1977 49.453 37.1778C49.8001 36.4067 49.5099 35.7893 49.0717 35.1291C48.7872 34.6995 48.6307 34.1332 48.5823 33.6125C48.497 32.6593 48.5026 31.6919 48.5368 30.733C48.5482 30.4456 48.736 30.1412 48.9152 29.8964C49.0063 29.7712 49.2737 29.6774 49.4274 29.7143C49.692 29.7741 49.7034 30.0131 49.6408 30.2635C49.5497 30.6306 49.4502 31.0033 49.4302 31.3789C49.3534 32.6906 49.9026 33.8089 50.6054 34.8702C50.705 35.021 50.8188 35.1604 50.9269 35.3055C51.1887 35.6584 51.257 35.9941 51.0265 36.4209C50.8387 36.7624 50.779 37.175 50.6708 37.5562C50.6281 37.7071 50.6338 37.8692 50.5912 38.0172C50.4802 38.3928 50.1302 38.5038 49.877 38.2021ZM50.6822 41.3463C50.6338 40.9679 50.7334 40.6008 51.0891 40.1399C51.4448 41.3378 51.6297 42.4389 52.3866 43.2954C52.4207 43.3352 52.509 43.3324 52.6285 43.3665C52.8532 42.8487 52.4919 42.1857 52.9728 41.7532C53.3512 41.8158 53.3967 42.0918 53.4138 42.3223C53.4508 42.8344 53.4821 43.3552 53.4252 43.8616C53.354 44.5189 52.7394 44.7807 52.1618 44.4307C51.9712 44.3169 51.772 44.1632 51.6696 43.9755C51.2058 43.1503 50.8074 42.291 50.6822 41.3463Z" fill="white"/>
<path d="M54.6675 39.0616C55.191 39.2153 56.0162 38.9478 56.3406 38.5352C56.6593 38.1312 56.7133 37.2605 56.4231 36.8138C56.3377 36.6829 56.1812 36.5947 55.9593 36.4041C56.0077 36.9333 56.1243 37.3316 56.0589 37.6987C55.9877 38.1198 55.578 38.3446 55.1967 38.4954C54.8524 38.632 54.4655 38.7373 54.1638 38.3617C54.8553 37.6674 54.861 37.5564 54.2122 36.8906C53.9021 37.0528 53.6118 37.1837 53.3444 37.3459C52.9631 37.5764 52.9574 37.7243 53.2249 38.0999C53.5862 38.6035 54.087 38.8881 54.6675 39.0616Z" fill="white"/>
<path d="M86.3063 29.134C86.8981 30.0588 87.2851 31.0661 87.4473 32.1274C87.6322 33.3424 87.6806 34.5773 87.803 35.8008C87.8826 36.5975 87.7717 37.3629 87.5127 38.1169C87.4615 38.2649 87.4701 38.4328 87.4359 38.7031C88.4062 38.1454 88.8899 37.2121 89.8517 36.6743C90.0451 37.5564 89.57 38.2592 89.6411 39.0104C89.7122 39.7644 89.3167 40.5014 89.4874 41.429C89.6041 41.1957 89.6781 41.1046 89.6952 41.0079C89.7976 40.3449 89.9057 39.6819 89.9797 39.0132C90.0651 38.2706 90.2472 37.5735 90.6654 36.9304C91.0012 36.4125 91.4195 35.9345 91.5703 35.3057C91.6784 34.8447 91.6101 34.6427 91.2061 34.5261C90.6057 34.3496 90.287 34.4606 90.1533 34.8874C90.0622 35.1805 89.9683 35.4707 89.8602 35.8122C89.4448 35.6414 89.1261 35.7154 88.8046 36.128C88.7163 35.8207 88.6367 35.6443 88.6224 35.4622C88.5997 35.1264 88.6139 34.7907 88.6168 34.4549C88.6338 33.2542 88.4745 32.0932 87.8912 31.012C87.4331 30.1612 87.0063 29.2934 86.5396 28.4483C86.3803 28.1609 86.2181 27.9077 86.5225 27.5463C86.0246 27.2845 85.7856 26.8037 85.1738 26.852C85.2023 27.0142 85.1966 27.1536 85.2507 27.2589C85.5978 27.8849 85.9222 28.5308 86.3063 29.134Z" fill="white"/>
<path d="M83.0344 27.8336C83.3502 28.2348 83.5352 28.673 83.5522 29.1908C83.5608 29.4299 83.6433 29.6746 83.7315 29.9022C83.9506 30.4656 84.2209 31.0119 84.4172 31.5838C84.7217 32.4744 84.9579 33.3878 85.2737 34.2727C85.5383 35.0154 85.4473 35.7352 85.2168 36.4438C85.0944 36.825 84.8896 37.175 84.4258 37.3002C84.2522 37.3457 84.1185 37.5278 83.999 37.6246C84.4713 38.6888 84.9123 39.679 85.3562 40.6777C85.4672 40.6094 85.5269 40.5952 85.5383 40.5667C85.5753 40.4614 85.6066 40.3533 85.6208 40.2423C85.7631 39.1526 86.1899 38.1823 86.8501 37.2917C87.0094 37.0783 87.0891 36.7596 87.0891 36.4893C87.0891 35.9088 87.0435 35.3255 86.961 34.7479C86.8074 33.6638 86.7476 32.5427 86.4062 31.5127C85.9481 30.1355 85.3079 28.801 84.4372 27.6116C84.0445 27.0767 83.5266 26.6243 83.0372 26.1605C82.8096 25.9442 82.5165 25.8105 82.1552 25.8447C81.9503 26.2601 82.1665 26.593 82.3572 26.906C82.5507 27.2332 82.7982 27.532 83.0344 27.8336Z" fill="white"/>
<path d="M47.4184 27.4693C47.5236 27.1506 47.2419 27.1193 47.0314 27.0397C46.9745 27.0169 46.9318 26.9572 46.855 26.8946C46.8977 26.7523 46.9147 26.5901 46.9887 26.4621C47.3131 25.8987 47.646 25.3381 47.9903 24.7833C48.4427 24.0634 48.4825 24.0634 49.1028 24.6979C49.1284 24.7235 49.1825 24.7235 49.2252 24.7378C49.7345 24.0236 49.7174 23.6679 49.1142 23.3008C48.9093 23.1756 48.6447 23.059 48.4171 23.0732C47.996 23.1017 47.5777 23.2155 47.1651 23.3151C46.7468 23.4175 46.3428 23.5825 45.9188 23.6508C44.977 23.8073 44.0323 23.9581 43.082 24.0378C42.308 24.1004 41.6678 24.5016 40.965 24.7349C40.6065 24.8544 40.2594 25.0451 39.9549 25.267C39.6476 25.4918 39.383 25.7792 39.1354 26.0722C38.922 26.3255 38.6745 26.6015 38.5948 26.9031C38.2249 28.3087 37.8806 29.7229 37.5961 31.1484C37.5278 31.487 37.6928 31.8911 37.8152 32.2439C38.0912 33.0463 38.5265 33.8117 38.683 34.634C38.9875 36.2218 38.9562 37.8322 38.6005 39.4257C38.5607 39.6049 38.5464 39.7927 38.5123 40.0317C38.6688 39.9862 38.7541 39.9862 38.7883 39.9464C39.033 39.6533 39.2976 39.3716 39.4996 39.0529C39.9947 38.2704 40.45 37.4595 40.3703 36.4892C40.2878 35.4905 40.4785 34.5288 40.7431 33.5784C40.8427 33.217 40.9679 32.8471 41.15 32.5227C41.5882 31.746 42.2682 31.1712 42.971 30.6419C43.7848 30.0302 44.5815 29.4355 45.0738 28.5051C45.3896 27.9047 45.9131 27.5518 46.6586 27.8819C46.6985 27.899 46.7468 27.9047 46.7924 27.9047C47.1139 27.9104 47.3273 27.7425 47.4184 27.4693ZM46.0839 26.5645C45.9985 26.7068 45.8221 26.8291 45.6599 26.8889C44.9998 27.1307 44.4961 27.5746 44.0039 28.0469C42.9283 29.0798 41.9723 30.2123 41.0959 31.4159C40.3276 32.4715 40.0915 33.6808 39.9834 34.9442C39.9037 35.8689 39.7358 36.7851 39.6078 37.7071C39.5594 37.7071 39.5139 37.7042 39.4655 37.7042C39.457 37.5449 39.4285 37.3827 39.437 37.2233C39.5053 35.9031 39.5025 34.5942 38.9704 33.3365C38.7456 32.8016 38.5863 32.2382 38.4298 31.6777C38.2534 31.0346 38.4042 30.3859 38.5038 29.7542C38.7115 28.4595 39.1952 27.2702 40.009 26.2088C40.541 25.5145 41.3349 25.2784 42.0804 24.9682C43.1104 24.5386 44.1746 24.237 45.3213 24.2427C45.8363 24.2455 46.3513 24.0975 46.8692 24.0406C47.0058 24.0264 47.185 24.0719 47.2818 24.1573C47.3387 24.2057 47.3045 24.4105 47.2505 24.513C46.8749 25.2072 46.4908 25.893 46.0839 26.5645Z" fill="white"/>
<path d="M79.9351 64.9292C79.4115 65.2451 79.3575 65.4699 79.6477 66.0589C79.7814 65.9877 79.9323 65.9365 80.0461 65.8454C80.4473 65.5154 80.8456 65.1825 81.2269 64.8296C82.2456 63.8821 82.9882 62.7354 83.5914 61.5034C83.7308 61.216 83.8617 60.9058 83.6483 60.4307C83.4947 60.7067 83.4036 60.8689 83.3154 61.031C83.0024 61.5973 82.7179 62.1806 82.3679 62.7241C81.759 63.6659 80.894 64.3516 79.9351 64.9292Z" fill="white"/>
<path d="M111.386 41.2609C111.978 41.2723 112.313 40.9337 112.165 40.3675C111.895 39.3346 111.559 38.3159 111.229 37.229C110.572 37.3001 109.957 37.3656 109.246 37.4424C109.61 38.609 109.915 39.6789 110.37 40.6947C110.546 41.0845 110.945 41.2524 111.386 41.2609Z" fill="white"/>
<path d="M73.0299 113.477C72.8991 113.494 72.7796 113.508 72.6714 113.52C72.33 113.557 71.8662 113.505 71.3284 113.446C70.3098 113.332 68.7704 113.161 68.4574 113.813C68.0676 114.624 66.9266 117.298 67.766 119.188C68.4972 118.971 69.3708 118.804 70.4264 118.727C71.4564 118.647 72.3556 118.601 73.1779 118.59C73.3116 118.587 73.4511 118.587 73.5848 118.587C74.336 118.587 75.0075 118.627 75.6221 118.712C76.0745 116.928 76.4615 114.547 76.066 113.944C75.551 113.158 73.9746 113.357 73.0299 113.477Z" fill="white"/>
<path d="M93.1612 108.836C93.0047 108.765 92.5579 108.805 91.3174 109.414C90.1422 109.991 88.9614 110.151 88.0139 110.282C87.2883 110.381 86.6025 110.472 86.4034 110.726C85.9282 111.329 85.342 115.221 86.2639 117.037C86.5712 116.903 86.8956 116.772 87.2399 116.647C88.8219 116.064 92.9734 114.644 94.3278 114.413C94.1314 113.13 93.6989 110.367 93.477 109.522C93.403 109.235 93.3006 108.899 93.1612 108.836Z" fill="white"/>
<path d="M12.6841 86.3803C12.795 86.2068 12.9032 86.0417 13.0084 85.8824C14.195 84.0756 14.5535 83.5293 12.3312 80.9855C11.2244 79.7165 9.89842 79.7051 8.98221 79.9185C7.90949 80.1689 7.13839 80.7664 6.86523 81.0965C7.18676 81.4294 7.47984 81.8163 7.88104 82.4025C8.62084 83.4866 10.1061 86.2125 10.9654 88.0221C11.3183 87.9083 11.9386 87.5441 12.6841 86.3803Z" fill="white"/>
<path d="M56.9695 112.467C54.4086 112.438 52.6161 111.758 51.4295 111.312C50.6783 111.027 50.0837 110.802 49.8703 110.967C49.304 111.443 49.25 116.021 49.5914 117.196C51.3783 117.287 53.1368 117.68 56.8728 118.767C58.5942 115.105 58.5089 113.594 58.1247 112.976C57.917 112.638 57.5386 112.473 56.9695 112.467Z" fill="white"/>
<path d="M92.319 15.291C92.2678 15.2484 92.2194 15.2028 92.1682 15.1602C91.73 15.328 91.2549 15.439 90.8679 15.6837C90.4866 15.9256 89.9346 15.8971 89.6387 16.4349C90.4268 16.7337 90.9305 17.4279 91.8012 17.6613C92.0487 16.8389 92.2052 16.0678 92.319 15.291Z" fill="white"/>
<path d="M106.702 41.2496C106.924 41.8187 107.766 42.0378 108.347 41.8045C108.708 41.6594 108.913 41.3691 108.901 40.9679C108.896 40.7688 108.864 40.5639 108.807 40.3733C108.574 39.5794 108.318 38.7912 108.09 37.9945C107.988 37.636 107.738 37.5478 107.416 37.5933C106.856 37.6701 106.301 37.7726 105.732 37.8665C105.692 37.986 105.655 38.0343 105.666 38.0685C106.002 39.1327 106.298 40.2139 106.702 41.2496Z" fill="white"/>
<path d="M23.4121 60.8231C23.4263 60.8829 23.4434 60.9426 23.4576 61.0024C24.5076 61.1219 25.5604 61.0052 26.7071 61.0223C26.3941 60.1943 26.2148 59.4488 25.697 58.7346C24.8917 59.4744 24.1519 60.1488 23.4121 60.8231Z" fill="white"/>
<path d="M28.3264 67.4188C27.8484 67.0375 27.1257 67.0233 26.6875 67.3875C26.1639 67.8228 26.0814 68.2155 26.4655 68.8671C26.8411 69.5044 27.2622 70.1162 27.6777 70.7279C28.2041 71.499 28.2098 71.4934 28.9951 71.0239C29.1117 70.9556 29.2483 70.9157 29.3593 70.8418C29.6581 70.6454 29.9454 70.4377 30.321 70.1759C29.6609 69.237 29.0691 68.3947 28.4744 67.5525C28.4402 67.4984 28.3805 67.4614 28.3264 67.4188Z" fill="white"/>
<path d="M39.6445 16.5603C38.6117 16.1733 37.7324 15.6896 36.7109 15.4875C36.7309 16.2387 37.3056 17.6472 37.741 18.0427C38.3556 17.5903 39.0499 17.2289 39.6445 16.5603Z" fill="white"/>
<path d="M50.8608 80.4194C50.8409 80.371 50.7755 80.3397 50.7271 80.3027C50.6929 80.3454 50.6246 80.4023 50.636 80.4279C50.6616 80.4934 50.7214 80.5446 50.8096 80.6527C50.8381 80.5247 50.875 80.4621 50.8608 80.4194Z" fill="white"/>
<path d="M113.545 48.1156C113.557 47.777 113.386 47.6233 113.067 47.5806C112.638 47.5237 112.211 47.4498 111.781 47.4014C111.329 47.353 111.215 47.4668 111.232 47.9278C111.258 48.5765 111.272 49.2281 111.332 49.874C111.369 50.2724 111.428 50.6821 111.574 51.0492C111.767 51.5414 112.382 51.7605 112.956 51.624C113.406 51.5158 113.619 51.1829 113.619 50.5996C113.619 50.2183 113.619 49.837 113.619 49.4558C113.594 49.4558 113.568 49.4558 113.54 49.4558C113.543 49.0119 113.531 48.5623 113.545 48.1156Z" fill="white"/>
<path d="M52.6554 65.5408C53.1989 66.09 53.8078 66.4827 54.5248 66.7359C55.2533 66.9948 55.9817 67.2481 56.7158 67.4843C58.5084 68.0619 60.2498 68.7647 62.1761 68.9326C63.6557 69.0606 65.1296 69.0947 66.6064 69.0834C68.4559 69.0663 70.2769 68.7533 72.098 68.4688C72.2488 68.446 72.4451 68.3123 72.4992 68.1842C72.6158 67.9054 72.3484 67.5468 72.0268 67.5184C71.7793 67.4956 71.526 67.5184 71.2785 67.5383C69.7078 67.6493 68.14 67.7859 66.5694 67.8655C65.7755 67.9054 64.9731 67.8513 64.1764 67.8229C63.9345 67.8143 63.6159 67.8285 63.6216 67.4757C63.6272 67.1485 63.9345 67.2026 64.1451 67.1883C64.643 67.1542 65.1467 67.1599 65.6446 67.1172C67.0702 66.992 68.4986 66.8696 69.9212 66.7103C70.5672 66.6392 71.2045 66.4827 71.8988 66.3546C71.8419 66.0075 71.8049 65.7486 71.7537 65.4896C71.6911 65.1709 71.5004 65.0514 71.1618 65.0941C70.6411 65.1624 70.1176 65.1795 69.5969 65.2421C67.3092 65.5209 65.0158 65.6319 62.7082 65.6148C60.7961 65.6006 58.9352 65.3104 57.1028 64.8352C55.6118 64.4482 54.2631 63.7312 53.0139 62.8491C51.9469 62.0951 51.0193 61.213 50.4986 59.9866C50.4417 59.8529 50.3193 59.7419 50.197 59.5769C49.4913 60.2911 49.3804 61.3183 49.9295 62.1036C50.7661 63.2987 51.614 64.4881 52.6554 65.5408Z" fill="white"/>
<path d="M76.9763 66.6361C76.743 65.7967 76.5638 64.9402 76.2878 64.1122C75.9776 63.1789 75.7073 63.1163 74.8679 63.6598C74.811 63.6968 74.7342 63.7224 74.7057 63.7736C74.6431 63.8874 74.535 64.0439 74.572 64.1264C74.626 64.2402 74.7854 64.3284 74.9191 64.3797C75.0415 64.4252 75.1894 64.3939 75.3232 64.4138C75.8752 64.5049 76.1654 64.8349 76.2536 65.4125C76.1227 65.6857 76.063 66.0585 75.8439 66.2093C75.3545 66.545 75.3744 66.9206 75.5508 67.3759C75.6333 67.5836 75.7073 67.797 75.7955 68.0019C76.0573 68.6222 76.3874 68.753 77.0219 68.497C77.4629 68.3177 77.4971 68.2409 77.3462 67.7828C77.2182 67.4015 77.0816 67.0202 76.9763 66.6361Z" fill="white"/>
<path d="M51.5913 58.4899C52.3966 59.5512 53.3299 60.4959 54.5192 61.1702C55.6232 61.7962 56.787 62.2885 58.0077 62.6384C58.9666 62.9116 59.9539 63.0994 60.9327 63.2986C61.2087 63.3526 61.5047 63.3071 61.8006 63.3071C61.8006 63.0482 61.8006 62.8319 61.8006 62.4962C61.5018 62.425 61.24 62.3767 60.9868 62.297C60.7535 62.2259 60.4376 62.186 60.3153 62.021C59.9625 61.5487 59.4503 61.5942 58.9723 61.4918C58.1983 61.3239 57.4244 61.1588 56.6618 60.9511C56.2236 60.8316 55.8936 60.5613 55.8594 60.0577C55.8395 59.7532 55.6631 59.5825 55.3529 59.5114C54.5676 59.3264 53.8705 58.9537 53.1876 58.5439C52.7522 58.2822 52.4905 57.9322 52.4136 57.4228C52.3539 57.0302 52.2714 56.6176 52.0893 56.2676C51.7848 55.6729 51.6198 55.0726 51.6141 54.4067C51.6112 53.8433 51.5145 53.28 51.4462 52.5686C51.2954 52.7706 51.2271 52.8304 51.2044 52.9015C50.9995 53.5645 50.7918 54.2275 50.6097 54.8961C50.4446 55.505 50.3052 56.1367 50.5983 56.7399C50.897 57.3346 51.1901 57.9549 51.5913 58.4899Z" fill="white"/>
<path d="M72.4209 69.0633C71.9912 69.1031 71.5616 69.1458 71.1348 69.2084C70.3039 69.3307 69.4787 69.5356 68.645 69.584C66.9634 69.6807 65.2761 69.7206 63.5916 69.7348C61.8901 69.749 60.2397 69.4303 58.6321 68.8726C57.2578 68.3946 55.8721 67.9479 54.4778 67.5325C53.5531 67.2565 52.7592 66.787 52.1389 66.087C51.2426 65.0769 50.4118 64.0099 49.5553 62.9656C49.3334 62.6953 49.1769 62.3538 48.7529 62.1831C48.6021 62.6981 48.9122 62.9855 49.1086 63.29C49.4443 63.8107 50.0077 64.192 50.0732 64.8749C50.0789 64.9289 50.1443 65.0086 50.1984 65.0257C50.6365 65.1708 50.7646 65.5834 51.0121 65.8964C51.3308 66.3004 51.5926 66.7927 52.0023 67.0743C52.5913 67.4812 53.2714 67.7829 53.9514 68.0361C55.2688 68.5312 56.6119 68.9637 57.9435 69.4218C59.3463 69.9027 60.7946 70.2242 62.2685 70.3551C63.4664 70.4604 64.6757 70.4376 65.8793 70.4575C66.5167 70.4689 67.1569 70.4291 67.7943 70.4376C69.4048 70.4604 70.9498 70.0165 72.5262 69.8088C72.5489 69.8059 72.5688 69.7974 72.5916 69.786C72.7794 69.7063 72.9985 69.6409 72.9444 69.3706C72.8818 69.106 72.6684 69.0405 72.4209 69.0633Z" fill="white"/>
<path d="M63.127 59.2041C63.3005 59.2866 63.4656 59.4032 63.6448 59.4374C63.8127 59.4658 64.0005 59.4175 64.1712 59.3776C65.3862 59.0931 66.5955 58.8256 67.8617 58.8228C68.5759 58.8199 69.2901 58.6691 70.1209 58.5695C69.7966 58.0488 69.3925 57.9122 68.9913 57.7728C68.6499 57.6533 68.2942 57.5623 67.9613 57.42C66.8886 56.959 65.8443 56.7485 64.8769 57.6391C64.8598 57.6533 64.837 57.6619 64.82 57.6761C64.3419 58.0175 63.8525 58.3476 63.3944 58.7118C63.2635 58.8199 63.2152 59.0362 63.127 59.2041Z" fill="white"/>
<path d="M57.9502 63.2246C56.1604 62.7153 54.4361 61.9727 52.9053 60.8744C52.6321 60.678 52.339 60.5073 52.0573 60.3252C52.0204 60.3536 51.9834 60.3821 51.9492 60.4106C52.0004 60.5016 52.0403 60.6012 52.1057 60.6809C52.6264 61.3125 53.2638 61.7536 53.9951 62.1662C55.2072 62.8491 56.4563 63.4181 57.7424 63.9218C59.2448 64.5079 60.8155 64.7469 62.426 64.7185C63.3109 64.7014 64.1958 64.6644 65.0807 64.636C66.4209 64.5933 67.7639 64.5677 69.1041 64.5051C69.8467 64.4681 70.5865 64.3685 71.3036 64.3002C71.4373 63.5661 71.3064 63.4295 70.6178 63.4978C69.7187 63.5889 68.8167 63.6913 67.9176 63.7795C66.0595 63.9587 64.1929 64.1437 62.3292 63.9275C60.8581 63.7624 59.3615 63.6287 57.9502 63.2246Z" fill="white"/>
<path d="M13.9113 25.3354C13.2882 25.8106 12.6167 26.3057 11.8968 26.8264C11.8683 26.8549 11.8399 26.8748 11.82 26.8919C11.7204 26.9886 11.7119 27.2362 11.7944 27.6317C12.3293 27.185 13.2797 26.0866 13.9113 25.3354Z" fill="white"/>
<path d="M66.7102 50.5059C67.1939 50.375 67.672 50.2157 68.1671 50.1445C68.7333 50.062 69.1146 50.4006 69.1942 50.964C69.2056 51.0522 69.1914 51.1518 69.2255 51.2286C69.2682 51.3225 69.3337 51.4477 69.4162 51.4705C69.4959 51.4933 69.6438 51.4335 69.7007 51.3624C69.9682 51.0295 70.0962 50.6709 69.8999 50.2413C69.6979 49.7974 69.3593 49.5271 68.9012 49.399C68.1215 49.1828 67.3362 49.1743 66.5366 49.3308C65.9619 49.4446 65.3444 49.658 64.801 49.5555C63.9075 49.3877 63.088 49.6068 62.2458 49.7291C61.8019 49.7946 61.5373 50.0962 61.4206 50.5287C61.2556 51.149 61.4861 51.7579 62.1291 52.2131C62.96 52.7964 63.8108 53.3484 64.7355 53.9716C64.9318 53.687 65.1026 53.4281 65.2847 53.1749C65.5863 52.7623 65.831 52.6599 66.2692 52.8477C66.5053 52.9501 66.7017 53.1493 66.8895 53.3314C67.0403 53.4765 67.1513 53.6614 67.2935 53.8464C67.874 53.135 67.8654 52.9103 67.2736 52.4095C66.824 52.031 66.5196 51.5758 66.4484 50.9868C66.4257 50.762 66.4627 50.5713 66.7102 50.5059ZM64.6274 52.7025C64.451 52.7708 64.2148 52.7765 64.0327 52.7253C63.4522 52.5603 63.051 52.1534 62.775 51.6498C62.5559 51.2542 62.8376 50.7591 63.3384 50.6026C63.5092 50.5486 63.6969 50.5514 63.8847 50.5258C64.0612 50.5486 64.2433 50.5628 64.4197 50.597C64.9688 50.7051 65.2875 50.9754 65.3387 51.3652C65.4156 51.9115 65.114 52.5176 64.6274 52.7025Z" fill="white"/>
<path d="M126.691 69.1573C125.829 67.2253 124.594 62.5588 124.101 58.3932C124.087 58.1541 124.158 58.009 124.281 57.881C124.298 57.6733 124.323 57.4229 124.349 57.1383C124.449 56.1168 124.631 54.219 124.52 53.8007C124.389 53.3141 124.665 53.0694 124.75 53.0068C125.015 52.8162 125.402 52.8475 125.76 53.0836C126.221 53.3909 126.443 53.9117 126.327 54.4124C126.235 54.8051 126.292 55.4453 126.392 55.8864C126.486 55.7526 126.571 55.616 126.637 55.4795C126.95 54.8421 126.694 54.3186 125.911 52.8902L125.831 52.745C125.533 52.1987 125.197 51.5784 124.847 50.8187L124.713 50.5256C123.501 47.9306 122.832 46.5023 121.885 43.1305C120.895 39.605 120.277 37.5677 118.115 33.3053C112.646 22.527 104.093 13.8571 92.694 7.54029C80.0718 0.54347 67.8423 0 64.3937 0H64.2401C64.1803 0 64.112 0.00284539 64.0523 0.00569079C50.016 0.0995888 38.3954 3.91242 28.5133 11.6633C25.7476 13.8343 24.1684 15.5671 22.4982 17.3996C20.9616 19.0869 19.391 20.8084 16.8472 22.9794C16.9326 23.0363 16.998 23.1188 17.0322 23.2184L17.0691 23.3265C17.0748 23.3408 17.0777 23.355 17.0805 23.3692C17.3622 24.5529 10.2857 35.9089 7.84723 38.188C7.26393 38.7286 6.76029 39.3148 6.3534 39.7843L6.30218 39.844C5.83269 40.3818 5.41157 40.8627 4.962 41.2241C6.28796 40.7176 7.63383 40.3591 8.22851 41.3663C8.59841 41.9895 8.35656 42.5984 8.10047 43.2414C7.8956 43.7508 7.67651 44.2971 7.55131 45.0739C7.37774 46.1722 7.13304 46.9433 6.50705 47.1396C6.02902 47.3047 5.63636 47.0144 5.34898 46.7441V47.0059C5.35467 47.7571 5.3632 48.8952 5.26646 50.1358C5.09574 52.415 4.16814 55.0498 4.1596 55.0697C4.15106 55.0868 4.14253 55.1039 4.13115 55.1209L4.09416 55.1807C4.07139 55.2148 4.04579 55.249 4.01733 55.2774C4.01733 55.2774 0.625623 58.4842 0.136216 58.9537C0.0593901 59.0248 -0.0117447 59.2069 -0.00320849 59.4516C0.00817308 59.6281 0.0565448 59.7561 0.0935349 59.8215C0.588633 59.7476 2.09669 58.7005 2.83649 58.1826L2.88771 58.1456C4.31894 57.1497 5.44572 56.3672 6.22251 56.3672C6.30218 56.3672 6.38185 56.3758 6.45868 56.3928C6.73184 56.4554 6.94524 56.6176 7.06759 56.8481C7.32937 57.3034 7.32652 57.6078 7.31799 58.2765C7.3123 58.7374 7.30376 59.5029 7.38343 60.9085C7.40619 61.4121 7.19564 61.7194 7.01353 61.8873C6.43307 62.4308 5.40019 62.3056 4.31041 62.1747C3.86368 62.1206 2.83365 62.0011 2.57756 62.1405C2.58041 62.1946 2.60033 62.4592 2.956 63.0966C4.48682 65.7741 4.71445 71.4393 4.78843 73.3002L4.80835 73.6814C4.81404 73.8066 4.76852 73.9318 4.68315 74.0229L4.60917 74.1026C4.60064 74.1111 4.59495 74.1168 4.58641 74.1253C3.21209 75.3972 2.58894 76.3789 2.54057 76.7459C2.77674 76.8854 3.07551 76.9821 3.39419 76.9366C4.2222 76.8199 5.03598 75.8041 5.68473 74.0741C6.13715 72.8705 7.34075 70.8218 8.63825 70.4519C9.08213 70.3267 9.50325 70.4036 9.85608 70.6739C10.4991 71.169 10.5333 71.9657 10.576 72.9758C10.63 74.2335 10.7012 75.9606 11.9901 78.0605C12.8067 79.3922 13.5153 80.3169 14.0843 81.0596C15.1343 82.431 15.7688 83.259 15.5526 84.7614C15.342 86.2154 13.7856 88.3523 12.5393 90.0709C12.2348 90.4892 11.9418 90.8961 11.7056 91.2375C11.6458 91.4794 11.5462 91.7241 11.4097 92.0143C11.0654 92.7598 10.7438 93.4598 11.2816 94.2593C11.8564 95.1129 12.0669 95.1727 13.4384 95.5654L13.6803 95.6365C15.416 96.1344 16.907 96.7832 18.5345 98.3282C19.3711 99.1278 20.6458 100.488 21.7413 101.709C22.06 101.583 22.7116 101.142 23.4343 99.5546C24.0176 98.2685 24.1712 97.2726 23.8924 96.5926C23.6875 96.0946 23.2351 95.719 22.5095 95.4402C22.1112 95.2865 21.6388 95.1272 21.1381 94.9593C19.2544 94.3219 17.3053 93.6646 16.7505 92.6659C16.0704 91.4424 16.7135 90.7168 17.3309 90.014C17.4134 89.9201 17.5016 89.8205 17.5899 89.7152C18.0736 89.1433 18.5744 89.0494 18.9101 89.0722C19.5731 89.1149 20.2275 89.6242 20.8507 90.5859C20.9531 90.7453 21.0669 90.9274 21.1893 91.1266C21.8523 92.1993 22.8538 93.8211 24.1371 94.5467L24.5411 94.7743C25.8614 95.5113 26.4618 95.8471 26.8715 97.4519C27.1134 98.4022 26.4533 100.232 25.4147 102.915C25.0021 103.985 24.5781 105.078 24.3847 105.806C24.4103 106.113 24.4103 106.455 24.3818 106.859C24.3221 107.604 24.3505 107.63 24.8371 108.057L24.8826 108.094C25.446 108.597 26.0691 108.907 26.5642 108.933L27.1447 108.919C27.4122 108.913 27.7052 108.907 28.0211 108.907L28.2658 108.91C29.5405 108.89 30.4226 108.99 31.0343 109.229C31.8453 109.545 35.6439 111.454 38.0681 112.871C38.6913 112.165 39.8351 110.728 39.9973 109.556C40.2164 107.96 39.1636 106.335 38.0425 105.817C36.2755 105.004 34.6252 104.582 33.837 104.747C33.8143 104.753 33.8057 104.756 33.8029 104.759C33.7659 104.79 33.7232 104.981 33.7005 105.08C33.5269 105.86 33.1485 106.546 31.5693 106.304C30.9632 106.21 30.5563 105.994 30.3258 105.638C30.1181 105.322 30.0783 104.924 30.2035 104.46C30.3401 103.954 31.6376 101.134 33.0005 101.364C33.4501 101.441 34.0192 101.839 34.8102 102.389C35.7691 103.057 36.9641 103.888 38.0653 104.178L38.3299 104.247C40.39 104.787 42.9537 105.459 42.8968 107.451C42.8769 108.176 42.5439 109.548 42.1627 111.138C41.7615 112.811 41.2834 114.795 41.1867 116.044C41.2465 116.268 41.2834 116.476 41.3176 116.658C41.3546 116.86 41.3859 117.037 41.4371 117.148C41.7444 117.848 42.4927 118.109 43.0789 118.209H43.1016C43.4089 118.209 43.7618 118.109 44.1573 117.979C45.6767 116.379 46.2174 114.507 46.3995 113.184L46.4023 113.156C46.9429 109.252 47.0567 108.438 49.2164 108.62C50.0216 108.688 50.5793 108.976 51.2224 109.306C52.0703 109.741 53.1231 110.285 55.297 110.558C56.6827 110.731 57.7896 110.689 58.6773 110.652C60.1911 110.592 61.3861 110.541 61.517 112.145C61.5739 112.854 61.3605 113.591 61.0902 114.521C60.635 116.095 60.0204 118.215 60.4756 121.404L60.5724 121.544C61.0475 122.249 61.1756 122.437 62.4389 122.44C62.9511 122.437 63.3295 122.338 63.6312 122.13C63.671 122.101 63.708 122.07 63.745 122.042C63.8133 121.672 63.9783 121.043 64.2913 119.874C64.6925 118.371 65.1904 116.499 65.4238 115.181C65.5404 114.524 65.5717 113.984 65.5945 113.548C65.6343 112.826 65.6656 112.305 66.0668 111.949C66.4538 111.608 67.0513 111.571 67.8281 111.622C68.5338 111.667 69.2707 111.753 69.9849 111.835C71.4901 112.009 73.0466 112.191 73.9457 111.935C74.2046 111.861 74.5347 111.741 74.8847 111.613C76.148 111.155 77.7159 110.583 78.7117 111.104C79.1016 111.309 79.3633 111.65 79.4885 112.117C79.6479 112.72 79.7048 113.634 79.7702 114.692C79.9068 116.892 80.0946 119.868 81.3494 121.592C81.4205 121.612 81.4888 121.623 81.5543 121.629C81.6653 121.626 81.7848 121.621 81.9242 121.595C82.5502 121.487 82.9542 121.185 83.2985 119.908C83.3099 119.862 83.327 119.819 83.3412 119.777C83.4607 119.094 83.6143 118.047 83.7965 116.431C83.9444 115.119 83.953 114.009 83.9586 113.119C83.9757 111.022 83.9842 109.633 85.9618 109.195C86.7528 109.018 87.467 108.979 88.0958 108.942C89.3848 108.865 90.4063 108.805 91.6583 107.712C92.9472 106.586 94.7285 105.322 95.8922 105.681C96.2024 105.777 96.6093 106.031 96.7771 106.694C96.8853 107.118 96.8824 107.604 96.8824 108.168C96.8767 109.681 96.8767 111.952 99.1929 114.968C100.345 114.891 100.633 114.621 100.741 114.379C100.872 114.08 100.818 113.247 100.786 112.749C100.738 111.904 100.698 111.241 100.937 110.783C101.37 109.952 105.419 106.122 107.806 105.026C108.15 104.87 108.449 104.745 108.716 104.645C108.586 102.636 108.298 100.491 108.014 99.9274C107.513 100.121 106.779 100.792 106.23 101.293C106.005 101.501 105.791 101.694 105.606 101.848C105.518 101.922 105.413 102.007 105.293 102.101C104.537 102.713 102.96 103.985 102.878 104.961C102.821 105.624 102.411 106.224 101.882 106.418C101.771 106.458 101.66 106.477 101.555 106.477C101.338 106.477 101.136 106.398 100.98 106.241C100.553 105.817 100.573 104.958 101.034 103.692C101.236 103.137 102.018 102.613 103.381 101.74C104.224 101.199 105.094 100.642 105.666 100.112C106.249 99.5717 106.682 98.4819 107.066 97.523C107.57 96.2596 107.968 95.2609 108.765 95.2609C108.867 95.2609 108.961 95.2524 109.055 95.2438C110.313 95.1357 110.899 95.6963 111.735 99.0481C112.102 100.522 112.253 101.538 112.361 102.283C112.535 103.476 112.583 103.797 113.212 104.235C113.869 104.181 114.154 104.067 114.47 103.675C114.72 103.362 114.473 102.352 114.31 101.686L114.276 101.549C114.143 101.006 114.017 100.491 114.017 100.035C114.017 98.7181 114.174 97.6254 116.285 94.5723C117.23 93.198 117.893 92.2989 118.422 91.6842C118.544 90.4493 118.692 88.5799 118.598 87.8515C118.587 87.769 118.544 87.4987 118.419 87.4702C118.283 87.4389 118.012 87.5727 117.879 87.7861C117.756 87.9767 117.679 88.173 117.588 88.4007C117.429 88.8019 117.247 89.2571 116.789 89.7949C115.867 90.8762 115.255 90.7936 114.971 90.6514C114.623 90.475 114.475 90.0738 114.589 89.6043C114.663 89.2913 115.019 88.8616 115.81 87.9198C116.629 86.9467 117.753 85.6122 118.064 84.7842C118.317 84.107 118.63 83.4753 119.216 83.4554C119.833 83.4411 120.243 84.0927 120.73 85.1598C121.125 86.0305 121.256 87.1003 121.373 88.045C121.452 88.6909 121.535 89.3482 121.691 89.7892C122.448 89.5474 123.367 89.2116 123.604 88.8559C123.996 88.2612 123.828 87.6182 123.273 86.3065C123.254 86.2581 121.41 81.6798 121.771 80.1945C121.794 80.1007 122.132 78.7548 122.65 77.4516C122.289 76.9793 122.238 76.1171 123.211 73.3457C123.996 71.1035 123.928 70.6568 123.868 70.2584C123.834 70.0308 123.794 69.7719 123.865 69.328C124.01 68.4118 124.503 68.1159 124.91 68.1386C125.353 68.1642 125.814 68.5854 125.846 69.4589C125.851 69.5784 125.854 69.7406 125.857 69.9341C125.911 72.2388 126.039 73.3372 126.17 73.8379C126.924 73.3969 127.815 72.8364 127.937 72.4978C128.105 72.034 127.886 71.5702 127.371 70.5686C127.194 70.2243 126.95 69.7406 126.691 69.1573ZM118.425 56.4554C118.18 58.6435 117.733 60.8829 117.09 63.1051C116.487 65.1965 115.693 67.3191 114.669 69.5955C114.39 70.2101 114.049 70.7991 113.719 71.3653C113.585 71.5958 113.451 71.8234 113.323 72.0567L113.124 72.4152C112.902 72.8164 112.683 73.2148 112.435 73.5989L112.196 73.966C111.681 74.7599 111.149 75.585 110.56 76.3561C109.544 77.6849 108.588 78.8572 107.629 79.9442C106.648 81.0567 105.791 81.9302 104.935 82.6871C103.626 83.848 102.198 85.026 100.573 86.2951C98.9425 87.567 97.1015 88.725 95.104 89.7408C93.3968 90.6087 91.9912 91.2887 90.6823 91.8891C90.0051 92.1993 89.2938 92.4411 88.608 92.6716L87.3902 93.0927C86.3858 93.4427 85.3472 93.8069 84.3001 94.1028C82.6754 94.5609 81.2271 94.9109 79.8783 95.1642C78.3561 95.4516 76.6716 95.7048 74.5802 95.9609C73.8063 96.0548 73.021 96.0832 72.2612 96.1117C71.9767 96.1231 71.6922 96.1316 71.4105 96.1458C70.7276 96.18 70.0418 96.2027 69.3561 96.2227C68.7955 96.2397 68.2464 96.2454 67.7114 96.2454C65.7367 96.2454 63.9385 96.1344 62.2454 95.904L61.5056 95.8072C59.6675 95.5654 57.7668 95.315 55.923 94.8113C55.2856 94.6378 54.6397 94.4898 53.9967 94.339C53.402 94.2024 52.8044 94.0658 52.2154 93.9093C51.7004 93.7728 51.1996 93.5992 50.696 93.4256C50.4371 93.3374 50.181 93.2492 49.9221 93.1639C47.9644 92.535 45.9783 91.7412 43.8471 90.7367C43.096 90.3839 42.3618 89.9941 41.6306 89.6043L41.4029 89.4848C40.4156 88.9612 39.4339 88.4291 38.4608 87.8828C38.219 87.7462 37.9942 87.5812 37.7694 87.4162L37.5247 87.2369C37.0467 86.8983 36.5629 86.5682 36.0764 86.2353C34.9837 85.4898 33.8541 84.7187 32.807 83.868C30.9746 82.3741 28.8576 80.5701 27.0479 78.4902C26.7748 78.1743 26.4959 77.8642 26.2199 77.5512C25.5 76.7402 24.7574 75.9009 24.0774 75.0302C23.2636 73.9859 22.4498 72.8136 21.5876 71.4421C20.1706 69.1886 19.0581 67.1314 18.1874 65.151C17.2797 63.0852 16.6139 60.9199 16.0277 59.0078C15.9538 58.7631 15.9737 58.5183 16.0164 58.3049C15.8599 58.1314 15.6351 57.8098 15.8001 57.383C15.3391 56.6347 15.2339 55.8266 15.1314 55.0413C15.0973 54.7681 15.0603 54.4921 15.0091 54.2247C14.9692 54.0226 14.9436 53.8149 14.918 53.6072C14.8896 53.3682 14.8611 53.1292 14.8042 52.8873C14.6363 52.176 14.6079 51.4589 14.588 50.7248C14.5823 50.5598 14.6136 50.4004 14.6534 50.2525H14.4656L14.4286 47.5294L14.5794 47.3246C14.7758 47.1197 14.7701 46.9461 14.5481 46.414C14.4144 46.0925 14.4372 45.7141 14.6107 45.3982C14.7644 45.1194 15.0148 44.9202 15.3078 44.8434L13.7656 44.5019L14.8697 43.765C14.7587 43.5886 14.6619 43.3353 14.7701 43.0024C14.7957 42.9228 14.7843 42.7776 14.7758 42.6382C14.7701 42.5443 14.7615 42.4533 14.7615 42.3622V42.0891L15.0091 41.9468C14.901 41.4261 14.7672 40.7403 15.2481 40.1826C15.0916 39.4201 15.2054 38.6945 15.5952 37.9689C15.6493 37.8665 15.6635 37.821 15.6664 37.7982C15.6806 37.6872 15.6863 37.5763 15.6891 37.4653C15.6977 37.2547 15.7119 37.0442 15.7574 36.8393C15.8798 36.2816 16.042 35.7324 16.2041 35.1833C16.318 34.7935 16.4631 34.3154 16.8927 33.9939C16.6907 33.4931 16.9013 33.0265 16.9866 32.8415C17.072 32.6537 17.146 32.4574 17.2114 32.2611C17.2569 32.1245 17.3167 31.9452 17.4134 31.7603L17.3622 31.766L17.8545 30.6363C17.9797 30.3461 18.0963 30.0758 18.2187 29.8112C18.5516 29.0998 18.8874 28.3913 19.2345 27.6857L19.2999 27.5462C19.4024 27.3158 19.5304 27.0341 19.7751 26.869L19.9743 26.4052H19.9771C19.9828 26.3967 19.9857 26.3853 19.9914 26.3768L19.9857 26.3739L20.0426 26.2487C20.1507 26.0439 20.2844 25.8532 20.421 25.6654C20.5861 25.4407 20.7397 25.2273 20.8251 24.9854C21.01 24.4675 21.3372 24.0265 21.6531 23.5997L22.3189 22.6892C23.0246 21.7189 23.7558 20.7145 24.5639 19.7897C24.7033 19.6332 24.8285 19.4625 24.9566 19.2918C25.3037 18.8308 25.6964 18.3101 26.3081 17.9857C27.5402 16.196 29.1336 14.8985 30.5335 13.8571C30.8266 13.638 31.1083 13.4046 31.39 13.1713C31.6632 12.9437 31.9363 12.7189 32.218 12.5027C33.1229 11.8198 34.0419 11.1511 34.9667 10.4938C35.3821 10.2007 35.8431 9.90481 36.3808 9.59466L36.6312 9.44955C37.2885 9.06827 37.9657 8.6756 38.6657 8.33131L39.7156 7.80491C40.9164 7.19884 42.1598 6.57001 43.4402 6.06922C46.4677 4.88269 48.9688 4.08314 51.3106 3.55674C53.9995 2.95067 56.8506 2.5324 60.026 2.27347C61.9922 2.11413 63.9214 2.07998 65.7624 2.16819C68.1326 2.28201 70.5085 2.56939 72.6027 2.81978C73.4222 2.91653 74.2331 3.0901 75.0184 3.25797C75.4111 3.34049 75.8009 3.42301 76.1964 3.49983C78.5154 3.93802 80.732 4.63799 83.3497 5.55421C85.3813 6.26555 87.3503 7.15901 89.1742 8.01832C91.7379 9.22476 94.3273 10.7641 97.3206 12.8555C98.1885 13.4616 99.1018 14.1672 100.194 15.072C100.607 15.4135 101.011 15.7635 101.418 16.1135C101.705 16.3639 101.996 16.6114 102.286 16.859C102.855 17.3427 103.381 17.8719 103.891 18.3841L104.317 18.8137C105.988 20.4754 107.396 22.0973 108.625 23.7733C109.735 25.287 111.01 27.054 112.134 28.8722C113.463 31.0176 114.635 33.4533 115.83 36.5348C116.84 39.1441 117.588 42.0265 118.115 45.347C118.439 47.39 118.618 49.2253 118.661 50.9581C118.726 52.6995 118.641 54.495 118.425 56.4554Z" fill="white"/>
<path d="M79.1469 68.8129C79.4742 68.4231 79.44 68.2808 79.1156 67.891C78.962 67.706 78.8226 67.4869 78.7571 67.2593C78.3417 65.8622 77.9376 64.4594 77.5564 63.0538C77.36 62.3254 77.0926 61.5884 77.3885 60.8173C77.3999 60.786 77.36 60.7377 77.306 60.6096C77.1637 60.6182 77.0214 60.5982 76.9048 60.6409C75.6272 61.1161 74.3155 61.5031 73.0891 62.1234C72.4119 62.4677 72.0989 62.9941 72.1245 63.6912C72.1473 64.3143 72.2383 64.9432 72.3721 65.5521C72.5229 66.2293 72.722 66.9008 72.961 67.5524C73.22 68.2637 73.3765 69.0178 73.8744 69.6409C74.139 69.971 74.4691 70.1474 74.8419 70.2185C75.2487 70.2982 75.6841 70.3352 76.0967 70.284C76.5406 70.2299 76.9645 70.0364 77.4027 69.9311C78.1197 69.7604 78.686 69.3592 79.1469 68.8129ZM78.0173 68.81C77.2462 69.1742 76.4267 69.3848 75.5817 69.4019C75.0581 69.4133 74.6171 69.1287 74.4321 68.5995C73.9911 67.3304 73.533 66.0671 73.1346 64.7867C72.8387 63.8363 73.0066 63.4721 73.8573 62.8376C74.5772 62.3026 75.3711 61.9526 76.3926 61.8445C76.717 62.9798 77.0186 64.0554 77.3287 65.1253C77.6275 66.1553 77.9291 67.1853 78.2535 68.2097C78.3474 68.4999 78.2905 68.6792 78.0173 68.81Z" fill="white"/>
<path d="M116.111 44.8974C115.969 43.7933 115.792 42.8487 115.57 42.0093C115.09 40.1996 114.66 38.6916 114.114 37.1949C112.97 34.0564 111.439 30.9862 109.567 28.064C107.74 25.2129 105.575 22.507 103.127 20.0144C101.83 18.6913 100.33 17.334 98.4155 15.7435C97.8408 15.2654 97.3627 14.9041 96.9103 14.6082L96.0112 14.0163C94.6653 13.1314 93.2767 12.2152 91.8711 11.3843C90.5053 10.5734 89.0343 9.79375 87.3726 8.99704C85.2698 7.98692 82.9679 7.08778 80.5294 6.32237C78.2445 5.60248 76.4747 5.14722 74.7931 4.83707C72.7842 4.46717 70.9376 4.19117 69.1421 4.00053C67.0764 3.77859 65.0504 3.74444 62.8054 3.72168C62.0969 3.72168 61.3799 3.75582 60.8364 3.79566C60.421 3.82411 60.0056 3.86679 59.593 3.90663C59.1946 3.94647 58.7963 3.9863 58.3951 4.01476C58.1646 4.03183 57.9341 4.03467 57.7008 4.03752C57.3963 4.04036 57.0805 4.04321 56.7817 4.08304C56.5826 4.10865 56.3862 4.17694 56.1814 4.24808C55.9822 4.31637 55.7773 4.3875 55.5611 4.42165C53.8424 4.68911 51.586 5.07609 49.3638 5.72199C48.9825 5.83296 48.6012 5.9354 48.2171 6.04067C47.4062 6.25977 46.5696 6.4874 45.7729 6.77479C44.7628 7.139 43.7669 7.60564 42.8023 8.05521L42.3527 8.26293C41.2943 8.75518 40.2614 9.24174 39.2484 9.79944C37.9168 10.5364 36.1811 11.5351 34.5478 12.7416C34.2889 12.9322 34.0214 13.1115 33.7568 13.2879C33.2987 13.5952 32.8264 13.911 32.4223 14.2781C32.189 14.4886 31.9329 14.6764 31.6854 14.8585C31.2358 15.1886 30.809 15.4988 30.5102 15.9512C30.4789 15.9996 30.4391 16.028 30.4078 16.0479C29.2668 17.1064 28.3392 17.9913 27.4457 18.936C26.5381 19.8949 25.7243 20.9249 24.9332 21.9208C24.7625 22.1371 24.5349 22.4216 24.1621 22.5098V22.5496C24.1678 22.7033 24.1707 22.874 24.0796 23.0106C23.9203 23.2496 23.7581 23.4886 23.5959 23.7248C23.1407 24.3935 22.6655 25.0849 22.2757 25.8076C21.9968 26.3226 21.6923 26.8718 21.3481 27.3925C21.0151 27.8961 20.6993 28.3713 20.5144 28.9489C20.3436 29.4896 20.0989 30.033 19.8201 30.5737H19.8315L19.8059 30.6021C19.7148 30.7785 19.6351 30.9549 19.5355 31.1285C19.3876 31.3817 19.2994 31.6606 19.2055 31.9594C19.066 32.3975 18.9238 32.8528 18.5681 33.2199C18.571 33.2483 18.5709 33.2739 18.5653 33.2995C18.551 33.3821 18.5397 33.4646 18.5283 33.5471C18.4998 33.7491 18.4714 33.9568 18.4088 34.1588C18.4002 34.1901 18.3888 34.2186 18.3803 34.2499L18.5653 34.4149L18.3092 34.4804C18.1811 34.8986 18.0502 35.3141 17.9194 35.7295C17.76 36.2303 17.6007 36.7311 17.4499 37.2319C17.3531 37.5477 17.2934 37.8664 17.2308 38.2021C17.1625 38.5578 17.0942 38.9277 16.9775 39.2919C16.7983 39.8553 16.7442 40.4756 16.6901 41.076C16.6645 41.3548 16.6418 41.6337 16.6048 41.9097L16.5962 41.9979C16.5792 42.1772 16.5564 42.419 16.269 42.5727C16.2406 42.641 16.2263 42.8145 16.2349 42.8999C16.6133 43.1105 16.5023 43.4263 16.4426 43.5999C16.4198 43.6625 16.3999 43.7222 16.3971 43.7677C16.3914 43.8474 16.3686 43.9185 16.3487 43.9811C16.3316 44.0295 16.3202 44.075 16.3174 44.1092L16.5023 44.1519L16.4881 44.5417C16.4824 44.7181 16.4625 44.9913 16.3316 45.2388C16.3373 45.5148 16.343 45.7908 16.343 46.0668C16.343 46.3827 16.3402 46.6985 16.3402 47.0143C16.3288 48.8268 16.3174 50.6991 16.6987 52.5116C16.8353 53.1575 16.9576 53.8063 17.08 54.455C17.2706 55.4623 17.4698 56.5037 17.7145 57.5167C17.9848 58.6406 18.3632 59.7645 18.7274 60.8515L18.8555 61.2299C19.0433 61.7876 19.2738 62.3453 19.4957 62.8831C19.5754 63.0766 19.6579 63.2729 19.7347 63.4664C19.7945 63.6115 19.8514 63.7595 19.9083 63.9046C20.0762 64.3342 20.2497 64.7781 20.4574 65.1907C20.5627 65.4013 20.6652 65.6118 20.7676 65.8252C21.0265 66.363 21.294 66.9207 21.6212 67.4329C21.9029 67.8739 22.1675 68.3349 22.4236 68.7816C22.6626 69.197 22.9102 69.6295 23.172 70.0421C23.7866 71.0181 24.3642 71.8802 24.9332 72.6684C25.6275 73.6301 26.2307 74.4069 26.8311 75.1097C27.4486 75.8325 28.14 76.5723 28.9453 77.3661L29.3379 77.756C30.311 78.7205 31.3183 79.7221 32.374 80.627C33.7568 81.8135 35.2193 82.9147 36.4656 83.8366C36.9778 84.215 37.5298 84.5621 38.0619 84.8979C38.4716 85.1568 38.8984 85.4243 39.3053 85.706C40.526 86.5482 41.8804 87.2169 43.1893 87.8656L43.6303 88.0847C44.9819 88.7562 46.2396 89.3253 47.4688 89.8318C48.9996 90.4606 50.2743 90.9301 51.4865 91.3086C52.3344 91.5732 53.2136 91.7951 54.0644 92.0085C54.6562 92.1593 55.2481 92.3073 55.8371 92.4723C58.4178 93.1951 61.0612 93.4853 63.7672 93.7442C65.3293 93.895 66.9995 93.969 68.8718 93.969C68.886 93.969 68.9003 93.969 68.9173 93.969C70.4965 93.969 72.0871 93.8666 73.7118 93.7528C74.6309 93.6902 75.6097 93.5735 76.8844 93.3743C78.1762 93.1723 79.6388 92.9447 81.0416 92.6288C81.7842 92.461 82.5325 92.2419 83.2524 92.0313C83.7987 91.872 84.3621 91.7069 84.9227 91.5646C86.3738 91.1947 87.8762 90.6655 89.518 89.9428C90.3887 89.5586 91.5325 89.0436 92.6565 88.4632L93.089 88.2384C94.2385 87.6465 95.4279 87.0376 96.5233 86.332C98.1139 85.3133 100.174 83.9333 102.021 82.283C102.245 82.081 102.473 81.8789 102.701 81.6798C103.56 80.9229 104.448 80.1404 105.227 79.2953C106.616 77.7901 107.785 76.3845 108.801 74.9988C109.891 73.5106 110.964 71.8603 111.988 70.0876C112.679 68.8926 113.223 67.5922 113.766 66.2577C115.041 63.1221 115.895 59.8812 116.305 56.6289C116.461 55.3883 116.532 54.1193 116.589 53.0295L116.595 52.9071C116.646 51.9141 116.7 50.8898 116.629 49.8939C116.512 48.1468 116.302 46.3883 116.111 44.8974ZM106.65 36.199C108.053 36.0766 109.453 35.9031 110.853 35.738C111.177 35.701 111.496 35.6128 111.897 35.5332C111.931 35.6043 112.019 35.7523 112.073 35.9116C112.52 37.2746 112.967 38.6403 113.397 40.009C113.51 40.3703 113.596 40.7459 113.65 41.1215C113.775 42.0093 113.123 42.7548 112.207 42.7946C111.49 42.8259 111.379 42.9255 110.107 42.089C110.045 42.1686 109.954 42.2398 109.925 42.3308C109.683 43.0706 109.094 43.3694 108.383 43.4747C107.1 43.6681 106.095 43.1361 105.56 41.9638C105.347 41.4971 105.199 40.9992 105.04 40.5098C104.655 39.3403 104.274 38.1708 103.901 36.9985C103.842 36.8164 103.822 36.6201 103.771 36.3612C104.803 36.7026 105.714 36.2815 106.65 36.199ZM97.9773 25.3609C98.1879 25.4804 98.4411 25.5515 98.6858 25.5942C98.9675 25.6426 99.2236 25.5629 99.4 25.3068C99.5679 25.065 99.5195 24.8288 99.3801 24.6154C99.1496 24.2569 98.8907 23.9126 98.6488 23.5626C98.2647 23.0078 97.8664 22.4614 97.505 21.8924C96.7026 20.6347 97.7099 19.5506 98.7399 19.3457C99.2947 19.2348 99.8382 19.3059 100.345 19.5421C101.551 20.1055 102.484 20.9676 103.13 22.12C103.477 22.7403 103.796 23.3748 104.163 24.0748C103.603 24.1516 103.036 24.2313 102.396 24.3195C102.504 23.1756 101.958 22.3334 101.292 21.5594C100.925 21.1326 100.501 20.7542 99.9008 20.6375C99.585 20.5778 99.2976 20.5892 99.0927 20.8509C98.8907 21.1099 99.0216 21.3745 99.1781 21.5964C99.6846 22.3135 100.228 23.0078 100.715 23.739C100.934 24.0691 101.09 24.4532 101.215 24.8288C101.429 25.4605 101.173 25.9812 100.686 26.3824C99.7898 27.125 98.7712 27.2474 97.7497 26.7267C96.3128 25.9926 95.2145 24.9199 94.6454 23.3862C94.4917 22.9708 94.284 22.5781 94.0422 22.046C94.6568 21.9151 95.2429 21.7871 95.8575 21.6562C95.6982 23.4232 96.566 24.5528 97.9773 25.3609ZM92.6223 13.2907C93.1572 13.6578 93.7946 14.0988 94.4917 14.5797C93.8913 14.9809 93.8487 15.5358 93.7633 16.0934C93.6125 17.1093 93.4133 18.1165 93.2568 19.1323C93.1174 20.0514 92.793 20.9562 93.015 21.9123C92.5426 21.8497 91.5723 21.2493 90.7813 20.5323C91.1 20.3558 91.3589 20.1624 91.4329 19.764C91.598 18.8563 91.6236 18.8592 90.8382 18.3498C90.1354 17.8946 89.4184 17.4535 88.7327 16.9755C88.4823 16.802 88.2859 16.7963 88.0555 16.9556C87.9815 17.0068 87.9046 17.058 87.8221 17.095C87.3982 17.2743 86.997 17.4735 86.9856 18.1165C86.2657 17.6385 85.6369 17.2231 84.9682 16.7792C85.6454 16.506 86.2458 16.2756 86.8376 16.0223C88.4253 15.348 90.0131 14.6736 91.5894 13.9765C91.9252 13.8257 92.2097 13.5696 92.6223 13.2907ZM81.1867 7.79344C81.2151 7.74222 81.2863 7.71377 81.2635 7.73084C82.3078 8.1861 83.298 8.62145 84.291 9.04825C85.2499 9.46084 86.2088 9.87342 87.1791 10.2604C87.6116 10.434 88.0725 10.5421 88.5847 10.7014C88.5705 11.1425 88.2063 11.4868 88.0042 11.9136C87.1392 11.2847 86.2116 10.8949 85.1645 10.5791C84.2625 12.3375 83.3634 14.0533 82.672 15.9796C82.0659 15.7662 81.4143 15.4675 80.6859 15.1175C81.4854 14.5939 81.6277 13.7801 82.0033 13.1058C82.4756 12.2635 82.8768 11.3843 83.3321 10.5336C83.6166 9.99862 83.5967 9.88196 83.0219 9.62587C82.6264 9.44946 82.2366 9.2645 81.8326 9.1137C81.4797 8.98281 81.107 8.89745 80.6631 8.76941C80.8481 8.42227 81.0103 8.10358 81.1867 7.79344ZM75.7264 11.3018C76.1276 10.0897 76.4576 8.85192 76.7962 7.61987C76.8759 7.32964 76.8816 7.01664 76.9328 6.61544C77.5588 6.78617 78.1876 6.95974 78.7795 7.12477C77.9856 9.32426 77.3482 11.5067 76.93 13.8171C76.2784 13.6549 75.5727 13.4785 74.7305 13.2708C75.5044 12.7273 75.5101 11.9619 75.7264 11.3018ZM64.7204 9.88196C64.8456 8.59015 64.8826 7.2898 64.9338 5.98946C64.948 5.64517 64.8826 5.30087 64.8484 4.8826C65.537 4.97081 66.2484 5.05901 66.8373 5.13584C67.1304 5.54842 67.3211 5.90125 67.5885 6.18294C68.6356 7.27558 69.7055 8.34544 70.7725 9.41816C70.9603 9.60595 71.1794 9.7596 71.3957 9.93886C71.6489 9.27304 71.7826 6.12035 71.5778 5.57118C72.1782 5.62525 72.7558 5.67931 73.2879 5.72768C73.1854 7.77067 73.0801 9.77383 72.9948 11.7798C72.9834 12.0558 73.0801 12.3347 73.1399 12.7017C72.4428 12.6306 71.7314 12.5595 70.9433 12.4798C71.1453 12.0416 70.8949 11.7428 70.6416 11.4697C69.4324 10.1608 68.2117 8.86046 66.9882 7.56296C66.8715 7.43776 66.7122 7.3524 66.5756 7.24997C66.513 7.27558 66.4504 7.30118 66.3906 7.32964C66.4931 8.88322 65.9638 10.4197 66.4162 12.0587C65.6764 12.0758 65.0049 12.0132 64.2054 11.8709C64.8399 11.2307 64.6578 10.5222 64.7204 9.88196ZM54.5453 5.95247C54.7217 6.72926 54.8611 7.46622 55.0546 8.19179C55.2395 8.88322 55.4672 9.56327 55.7005 10.2405C56.0078 11.1396 56.4602 11.4953 57.4077 11.4896C57.9939 11.4839 58.5942 11.4128 59.1662 11.2705C60.0739 11.0457 60.4125 10.4966 60.2531 9.56612C60.0084 8.13204 59.6157 6.73495 59.0922 5.30941C59.63 5.21836 60.1706 5.1273 60.6515 5.04479C60.8706 5.89841 61.0669 6.6752 61.2718 7.44914C61.4652 8.1861 61.6957 8.91168 61.8636 9.65432C62.2051 11.1681 61.7526 11.6233 60.4238 12.2123C59.1007 12.7956 57.641 12.9265 56.1984 12.7131C55.1029 12.5509 54.4144 11.8396 54.1071 10.8124C53.7742 9.69416 53.5067 8.55885 53.1965 7.43492C53.0856 7.03372 52.9262 6.6439 52.7726 6.20286C53.3701 6.12035 53.9904 6.03214 54.5453 5.95247ZM43.4994 9.5462C44.6689 8.54462 46.103 8.22594 47.5826 8.02391C47.961 7.9727 48.3395 7.91863 48.7748 7.85604C48.7748 8.33122 48.7748 8.76372 48.7748 9.19052C48.2399 9.1763 47.722 9.1137 47.2184 9.16207C46.2253 9.25597 45.3006 9.55189 44.5864 10.3002C43.9092 11.0059 43.8153 12.0245 44.3502 12.8298C45.3689 14.3663 47.3635 14.7021 48.7577 13.9395C49.2898 13.6464 49.7934 13.2936 50.2772 12.9265C50.6015 12.6818 50.5731 12.5936 50.3028 12.1184C50.1548 11.8567 50.0069 11.703 49.654 11.8083C48.8146 12.0644 48.2683 12.3404 47.8187 12.8554C47.5456 12.403 47.3094 12.0103 47.042 11.5664C47.9354 11.6091 48.5813 11.1425 49.2955 10.8864C49.8247 10.6957 50.3227 10.414 50.9373 10.3856C51.2304 11.2164 51.6856 11.9249 52.3685 12.5253C52.0214 13.2481 51.4267 13.7659 50.8036 14.2439C49.9499 14.9041 48.974 15.3394 47.9183 15.5898C46.3676 15.954 44.9705 15.6126 43.784 14.5825C43.0584 13.9537 42.4666 13.2025 42.3471 12.2038C42.219 11.1083 42.6828 10.2462 43.4994 9.5462ZM35.2791 14.17C35.575 13.9651 35.8681 13.7631 36.1839 13.5497C36.5738 14.2041 37.2851 14.2468 37.8826 14.4744C39.6667 15.1459 41.4593 15.7975 43.2519 16.4406C43.6702 16.5914 44.1112 16.6853 44.6973 16.8503C43.9832 17.3739 43.3685 17.8234 42.7625 18.2702C42.5092 18.0169 42.33 17.7552 42.0796 17.5958C41.3369 17.1235 40.6256 16.967 39.9057 17.7295C39.496 18.1649 38.924 18.4523 38.4432 18.8279C37.9993 19.175 37.9651 19.3571 38.1586 19.875C38.3834 20.4725 38.5456 20.6518 39.1488 20.905C38.5086 21.3802 37.9054 21.8269 37.2197 22.3362C37.1627 21.881 37.1627 21.5281 37.0688 21.2038C36.8185 20.3416 36.5425 19.488 36.2494 18.6401C35.9421 17.7495 35.6006 16.8702 35.2763 15.9853C35.0515 15.3707 34.9718 15.2541 34.3942 14.7903C34.7043 14.5712 34.9917 14.372 35.2791 14.17ZM26.5409 22.5724C27.1925 23.3634 28.1286 23.6508 28.9282 24.1402C29.8928 24.7321 30.8943 25.267 31.8817 25.8247C32.3711 26.1007 32.4593 26.1064 32.8065 25.6853C33.6259 24.6979 34.4283 23.6963 35.2222 22.6862C35.3559 22.5155 35.41 22.285 35.5323 22.0176C36.0047 22.2964 36.4315 22.544 36.8526 22.8029C36.9038 22.8342 36.9266 22.9082 36.9835 22.9935C36.0701 23.389 35.723 24.3024 35.0771 24.9426C34.9177 25.0991 34.8039 25.3011 34.6645 25.4776C34.0954 26.2031 33.5263 26.9287 32.9544 27.6486C32.7752 27.8734 32.5874 28.0925 32.3626 28.3599C31.913 27.6457 31.2358 27.3043 30.6127 26.923C29.2013 26.0637 27.7502 25.2613 26.3076 24.4532C26.0117 24.2882 25.6702 24.1971 25.3202 24.0634C25.7043 23.5939 26.1112 23.096 26.5409 22.5724ZM18.6478 40.9963C19.3193 41.2809 19.8571 40.9906 20.4062 40.7346C21.018 40.4529 21.6326 40.1825 22.2728 39.8923C22.2074 39.7529 22.1903 39.6505 22.1305 39.6021C21.4704 39.0871 20.8217 38.555 20.1245 38.0912C19.9197 37.9546 19.5811 38.0172 19.2197 37.9802C19.3477 37.2945 19.4872 36.5461 19.6266 35.7893C21.0038 36.8648 22.3354 37.8977 23.6557 38.942C24.0825 39.2806 24.5975 39.2436 25.0812 39.3232C25.5735 39.4058 26.0771 39.4513 26.575 39.4854C26.9307 39.511 27.2892 39.4911 27.7445 39.4911C27.6563 40.1484 27.5652 40.8114 27.4685 41.517C26.2706 40.8398 25.03 40.8654 23.8179 40.763C23.6699 40.7516 23.502 40.8057 23.3626 40.8683C22.0594 41.463 20.7591 42.0605 19.4644 42.6694C19.1059 42.8373 18.7673 43.045 18.2665 43.3182C18.4116 42.4532 18.5254 41.7589 18.6478 40.9963ZM19.9567 54.0055C19.5839 54.0538 19.2254 54.2132 18.7844 54.3412C18.534 53.7038 18.7872 52.9925 18.4998 52.3011C19.3819 52.1929 19.8315 51.6267 20.3294 51.106C21.294 50.0902 22.2842 49.1029 23.263 48.1013C23.5077 47.8509 23.7439 47.5919 24.0512 47.2647C23.8235 47.2021 23.7211 47.1424 23.6272 47.1538C22.2927 47.3131 20.9582 47.4696 19.6266 47.6602C19.1628 47.7257 18.7104 47.8879 18.1783 48.0244C18.1328 47.5094 18.0872 46.9688 18.0389 46.414C19.5611 46.4253 20.9782 46.101 22.4122 45.9018C23.8435 45.7055 25.3145 45.7282 26.7998 45.236C27.0161 45.8477 26.9108 46.5335 27.0275 47.1907C26.3559 47.2903 26.3332 47.2704 25.8466 47.7513C24.4211 49.1626 23.0126 50.5938 21.6013 52.0194C21.5558 52.0649 21.5387 52.1332 21.4846 52.2356C21.9399 52.4291 22.3895 52.2669 22.8106 52.2328C23.8548 52.1503 24.8906 51.9938 25.9263 51.8401C26.41 51.769 26.8852 51.6296 27.3746 51.5214C27.5652 51.9511 27.6705 52.9811 27.5339 53.4392C26.8027 52.984 26.0344 53.4022 25.2804 53.3311C25.03 53.3083 24.7824 53.2514 24.5036 53.2059C24.3471 53.5189 23.9687 53.5388 23.6215 53.5815C22.4008 53.7266 21.1745 53.8433 19.9567 54.0055ZM22.8191 62.4591C22.122 62.4847 22.122 62.4847 21.5757 62.8689C21.331 62.1433 20.9184 61.5002 20.7847 60.7234C20.9355 60.6694 21.0351 60.6039 21.1403 60.5982C21.5131 60.5812 21.7663 60.3877 22.0167 60.1373C23.5731 58.6008 25.1467 57.0785 26.7031 55.5391C27.0644 55.1806 27.3803 54.7794 27.7786 54.3298C28.1144 55.1265 28.4359 55.8863 28.8201 56.7939C28.1656 56.5749 27.8156 56.8224 27.4543 57.1183C26.7059 57.7386 26.6775 57.7955 27.0445 58.6947C27.3063 59.3406 27.588 59.9779 27.8128 60.6352C27.9181 60.9425 28.1087 61.0791 28.3961 61.1104C28.7575 61.1474 29.1302 61.1986 29.4859 61.1588C29.7733 61.1246 30.0436 60.9596 30.422 60.8145C30.6582 61.4149 30.92 62.0835 31.2102 62.8205C30.5472 62.7522 29.9952 62.664 29.4432 62.6412C27.4856 62.5644 25.5279 62.5075 23.5703 62.4477C23.3199 62.4392 23.0695 62.4506 22.8191 62.4591ZM28.9993 73.0212C28.6863 73.2403 28.4587 73.5818 28.1343 73.9289C27.8896 73.5533 27.6335 73.1493 27.3632 72.7509C26.5978 71.6127 25.8153 70.4831 25.067 69.3364C24.8735 69.0405 24.7227 68.6962 24.643 68.3519C24.478 67.6434 24.7511 67.0459 25.2235 66.4996C26.558 64.9574 28.4502 65.2704 29.3379 66.4939C29.9468 67.3304 30.5814 68.1528 31.2073 68.9779C31.4805 69.3393 31.5915 69.382 31.9244 69.1686C32.593 68.7418 33.2446 68.2893 33.9019 67.8483C34.0897 67.7231 34.2804 67.5951 34.5535 67.4158C34.8921 67.8967 35.2876 68.4572 35.76 69.123C34.6958 69.1145 34.104 69.8315 33.3613 70.2612C32.5959 70.7051 31.8675 71.203 31.1191 71.6753C30.4106 72.1249 29.6822 72.5404 28.9993 73.0212ZM41.9459 79.5059C41.0325 80.4733 40.1561 81.4777 39.2769 82.4736C39.1346 82.6358 39.0407 82.8407 38.9354 83.0342C38.8671 83.1622 38.8216 83.3045 38.7419 83.4923C37.9168 82.9203 37.1997 82.3257 36.5083 81.6001C37.103 81.2473 37.2737 80.7265 37.416 80.1774C37.7119 79.0278 38.0391 77.884 38.3493 76.7373C38.3834 76.615 38.3692 76.4812 38.3834 76.2849C38.1956 76.3077 38.0391 76.2963 37.9082 76.3446C37.3164 76.5723 36.7302 76.8227 36.1384 77.0531C35.484 77.3092 34.8238 77.5596 34.1637 77.8015C33.6686 77.9836 33.1934 78.1828 33.0568 78.8457C32.2886 78.2226 31.5915 77.6592 30.8118 77.0275C32.0524 76.3816 32.6699 75.2748 33.5235 74.4012C34.4682 73.4338 35.3616 72.4123 36.2579 71.3965C36.4713 71.1546 36.5937 70.836 36.7786 70.5144C37.453 70.8217 37.894 71.405 38.483 71.8631C36.992 72.768 36.1299 74.2277 34.9576 75.3914C34.7726 75.5735 34.6218 75.7898 34.4966 76.0573C36.5738 75.4313 38.557 74.589 40.7309 73.798C40.2984 75.9292 39.661 77.8442 39.3053 79.8502C40.0651 79.2697 40.6455 78.5498 41.2601 77.8612C41.8861 77.1613 42.6202 76.5467 43.0612 75.6902C43.5677 75.8752 44.2336 76.4072 44.5892 76.9251C43.4539 77.5369 42.7909 78.6124 41.9459 79.5059ZM49.1931 88.153C48.513 88.2071 47.7846 88.025 47.1216 87.8173C45.6733 87.3649 44.5295 86.4942 43.9632 85.0686C43.195 83.1338 43.9462 80.9485 45.7103 79.7364C46.9253 78.8998 48.2199 78.7518 49.6142 79.1758C50.7182 79.5116 51.7198 79.9896 52.4653 80.9115C53.1539 81.7651 53.4327 82.4565 53.427 83.5549C53.4327 85.669 51.6686 87.9595 49.1931 88.153ZM62.3815 90.9045C61.323 91.5305 60.1194 91.6785 58.8816 91.5106C57.6297 91.3399 56.648 90.6684 55.6948 89.9257C55.379 89.6782 55.0574 89.4391 54.7274 89.1888C54.9038 88.6396 55.0745 88.4376 55.8143 87.9453C56.685 89.1887 57.8601 89.8119 59.3255 89.9143C59.8889 89.9542 60.4438 89.9513 60.9844 89.681C61.4226 89.4619 61.8124 89.2257 62.0998 88.8274C63.0217 87.5498 62.8737 85.706 61.7156 84.6418C61.2063 84.1752 60.5405 83.9561 59.8604 83.8309C59.0097 83.6715 58.1731 83.8479 57.365 84.0756C57.0207 84.1723 56.7362 84.4796 56.3891 84.7129C56.022 84.2008 55.8314 83.6232 55.6123 83.0768C56.1415 82.963 56.6195 82.9175 57.052 82.7525C58.4463 82.2289 59.8178 82.3883 61.212 82.7582C62.5721 83.1224 63.5879 83.9105 64.1854 85.1341C64.4415 85.6576 64.5184 86.3007 64.544 86.8925C64.6236 88.6339 63.8838 90.0139 62.3815 90.9045ZM71.6887 71.1063C70.2347 71.1916 68.7864 71.3965 67.3325 71.5245C65.7703 71.664 64.2054 71.8546 62.6376 71.8717C61.3884 71.8859 60.1421 71.6526 58.9357 71.2798C57.6325 70.8758 56.3179 70.4974 55.0176 70.0848C53.9221 69.7376 52.9405 69.1657 51.9901 68.5369C51.8251 68.4288 51.6799 68.2723 51.5604 68.1129C50.7467 67.0317 49.9414 65.9447 49.1333 64.8606C49.1077 64.8265 49.065 64.8037 48.9569 64.7127C48.826 64.8236 48.6411 64.9204 48.5529 65.0712C48.1374 65.7655 47.7533 66.4768 47.3464 67.1768C46.9481 67.8654 46.931 68.6507 46.8428 69.3905C46.7062 70.5457 46.3221 71.6127 45.9493 72.694C45.716 73.3712 45.4827 74.0512 45.2266 74.7228C45.1242 74.9931 44.9847 75.2549 44.8225 75.4967C44.7656 75.5821 44.5522 75.6589 44.4839 75.6191C44.3758 75.5565 44.2677 75.3914 44.2649 75.2691C44.262 75.0727 44.3417 74.8764 44.3986 74.6829C44.8851 73.0724 45.4002 71.4705 45.8526 69.8515C45.9892 69.3677 46.0261 68.8328 45.992 68.3292C45.9408 67.5808 46.2623 66.9748 46.6123 66.3744C46.9424 65.811 47.3265 65.2818 47.6736 64.7269C48.0748 64.0867 48.2825 63.4465 47.8557 62.7067C47.6224 62.3026 47.7248 61.9043 48.1374 61.6425C48.8146 61.2128 48.9939 60.5726 49.0849 59.867C49.1475 59.3776 49.2016 58.8882 49.2585 58.3988C49.324 57.8496 49.2557 57.3431 48.9569 56.848C48.6951 56.4127 48.789 56.1537 49.139 55.7611C49.3296 55.5477 49.5402 55.3143 49.6313 55.0526C49.9272 54.2046 50.1719 53.3425 50.4365 52.4832C50.5219 52.2043 50.5959 51.9226 50.6926 51.6466C50.8292 51.2653 50.832 50.9182 50.5902 50.5625C50.0382 49.7516 49.6967 48.8468 49.4748 47.9021C49.3837 47.518 49.2784 47.0855 49.3695 46.7213C49.6341 45.6628 49.2187 44.7921 48.7577 43.9072C48.2996 43.0308 47.7874 42.1743 47.4261 41.2609C47.0249 40.2508 46.5156 39.2493 46.4672 38.1367C46.4359 37.4026 46.4985 36.6628 46.5269 35.9258C46.5383 35.6356 46.5554 35.3425 46.5895 35.0523C46.6749 34.358 46.396 33.7889 45.9749 33.2597C45.6762 32.8841 45.292 32.7618 44.8282 32.8386C44.6262 32.8727 44.4242 32.9097 44.2193 32.9325C43.7925 32.978 43.4226 32.9154 43.1153 32.5569C42.8251 32.2183 42.5975 32.2524 42.384 32.6423C41.9003 33.53 41.4906 34.4348 41.4877 35.4876C41.4849 36.29 41.3625 37.0924 41.2658 37.892C41.1292 39.0501 40.3752 39.8354 39.5017 40.5069C39.0805 40.8313 38.5598 41.0276 38.0847 41.2837C37.7745 41.4516 37.4701 41.352 37.2709 41.1443C37.1485 41.0162 37.1172 40.7317 37.1571 40.5354C37.3904 39.3545 37.342 38.1794 37.1485 37.0014C36.9266 35.6527 36.6819 34.3097 36.4998 32.9581C36.4315 32.4573 36.4457 31.9224 36.5453 31.4273C36.7872 30.218 37.0603 29.0144 37.3989 27.8278C37.581 27.1876 37.8997 26.5787 38.1985 25.9755C38.6424 25.0735 39.4476 24.5329 40.3553 24.2114C41.5503 23.7874 42.7909 23.4801 44.0173 23.1443C44.299 23.0675 44.6006 23.0419 44.8965 23.0362C45.568 23.022 46.231 22.9366 46.8086 22.6037C47.7248 22.0802 48.6638 22.2452 49.6 22.4472C50.0125 22.5354 50.3654 22.5895 50.7836 22.4017C51.2304 22.1997 51.7397 22.1086 52.232 22.0204C53.3986 21.8155 54.5652 21.5623 55.746 21.4741C57.0833 21.3717 58.4321 21.3973 59.7751 21.42C61.0498 21.4399 62.3246 21.5708 63.5993 21.5708C64.5525 21.5708 65.5057 21.4428 66.4589 21.3631C67.5942 21.2692 68.7295 21.1639 69.8648 21.0672C70.4311 21.0188 70.9973 20.9648 71.5635 20.9448C73.0033 20.8936 74.3634 21.2692 75.6951 21.7501C76.9783 22.2139 78.273 22.6578 79.5193 23.2041C80.4326 23.6024 81.2806 24.1459 82.1484 24.6382C82.5325 24.8573 82.928 24.9682 83.3748 24.991C84.5243 25.0451 85.6482 25.2585 86.6271 25.8958C87.2531 26.3027 87.8563 26.7466 88.4481 27.2019C89.9619 28.3628 91.3789 29.6261 92.5796 31.1057C93.621 32.389 93.5784 33.5215 92.9666 34.873C92.4601 35.997 91.8683 37.0839 91.3903 38.2192C91.1683 38.7485 91.1029 39.346 91.0061 39.9179C90.8923 40.5809 90.8496 41.2553 90.7187 41.9125C90.6504 42.2568 90.5253 42.621 90.3147 42.8942C89.9903 43.3153 89.6033 43.708 89.1822 44.0409C88.3542 44.6982 87.1478 44.4762 86.5645 43.5999C86.4649 43.4491 86.3767 43.2897 86.3027 43.1275C86.112 42.7206 85.8446 42.4332 85.3751 42.3052C84.9056 42.1772 84.6524 41.7845 84.456 41.3691C84.2881 41.0134 84.1288 40.652 83.941 40.2394C83.6622 40.4614 83.6878 40.7004 83.7105 40.8967C83.8243 41.8699 83.5569 42.7804 83.1585 43.6368C82.3988 45.2758 81.9236 46.9887 81.5537 48.7415C81.5025 48.9805 81.4684 49.248 81.3375 49.4414C80.8964 50.0845 81.107 50.6792 81.4257 51.2682C81.6932 51.7604 81.9834 52.2442 82.2878 52.7165C82.6037 53.2088 82.7203 53.7551 82.7573 54.3156C82.8029 54.9957 83.0646 55.5619 83.5455 56.0513C83.7646 56.2732 83.9154 56.5606 84.0918 56.8224C84.3963 57.2691 84.715 57.7045 84.9967 58.1626C85.3979 58.8085 85.6226 59.5056 85.4946 60.2767C85.4832 60.3422 85.4604 60.4076 85.4462 60.473C85.3068 61.0933 85.1901 61.7051 85.7308 62.223C85.8218 62.3112 85.8531 62.462 85.8986 62.5872C86.132 63.2388 86.5844 63.7139 87.0709 64.2034C88.1949 65.3273 89.1367 66.5878 89.6233 68.13C89.7485 68.5312 89.9989 68.8926 90.1724 69.2795C90.3858 69.749 90.6078 70.2157 90.7728 70.7022C90.9008 71.0835 90.7643 71.2372 90.3289 71.2258C89.7143 71.2087 89.0969 71.1774 88.4851 71.112C87.916 71.0494 87.7538 70.8644 87.8079 70.3209C87.8933 69.4531 87.529 68.7474 87.1022 68.0332C86.9372 67.7601 86.8888 67.4016 86.8518 67.0772C86.7921 66.5821 86.7295 66.0984 86.4193 65.6801C86.4193 65.6801 86.4193 65.6773 86.4222 65.6773C86.2003 65.407 85.9868 65.1253 85.7478 64.8663C85.3495 64.4338 85.193 64.4623 84.8629 64.9346C84.4902 65.4696 84.1629 66.0642 83.6878 66.4939C83.039 67.08 82.2708 67.5353 81.5509 68.0446C81.3289 68.2011 81.0814 68.3235 80.8822 68.5056C80.7599 68.6166 80.6517 68.7987 80.6404 68.958C80.5265 70.3779 79.3485 70.799 78.3697 70.8445C76.1503 70.9355 73.9167 70.9782 71.6887 71.1063ZM86.7636 86.921C86.6185 88.0876 85.9157 88.9042 85.0052 89.533C83.8386 90.3383 82.5069 90.6968 81.0643 90.6115C80.6318 90.5858 80.1993 90.5944 79.764 90.6029C79.525 90.6086 79.3201 90.5375 79.3372 90.2871C79.3741 89.7322 79.4567 89.1802 79.525 88.6282C79.5278 88.5998 79.5932 88.5798 79.6302 88.5542C80.9989 89.3424 82.7374 89.2343 84.0235 88.2412C84.7434 87.6864 85.0194 86.8954 84.954 86.0332C84.8828 85.0914 84.4845 84.2463 83.7788 83.5919C82.8711 82.7525 81.7586 82.7069 80.6318 82.9972C79.9745 83.1651 79.3457 83.4467 78.8051 83.8849C78.3555 84.2491 78.3185 84.326 78.5433 84.8438C78.64 85.0658 78.7482 85.2792 78.8734 85.5438C79.7213 85.2365 80.4583 84.9662 81.2749 84.6703C81.568 85.0516 81.659 85.6149 81.8781 86.2096C80.2761 85.9905 78.9929 86.938 77.4734 87.1059C77.5901 85.9735 77.1775 85.043 76.5003 84.1695C76.8218 83.6232 77.3198 83.222 77.849 82.889C78.4608 82.5049 79.1067 82.1549 79.7754 81.8818C80.7115 81.5005 81.7131 81.3468 82.7203 81.4863C84.4105 81.7196 85.6027 82.6671 86.3084 84.1695C86.7153 85.0316 86.8831 85.9564 86.7636 86.921ZM96.7424 84.0073C96.7083 83.4752 96.327 83.3272 95.8746 83.1992C94.0592 82.6785 92.2552 82.1265 90.4427 81.5887C90.2094 81.5204 89.9732 81.472 89.592 81.3781C89.7342 81.6513 89.7997 81.805 89.8907 81.9387C90.6163 82.9972 91.3504 84.05 92.0731 85.1113C92.3491 85.5182 92.5967 85.9422 93.2398 86.1157C92.6223 86.7076 91.9166 86.9267 91.302 87.3392C91.2707 86.4856 90.7557 85.9422 90.3403 85.3418C89.2847 83.8252 88.2546 82.2915 87.1933 80.7835C86.9714 80.4676 86.647 80.2172 86.3084 79.8758C86.8661 79.5429 87.4693 79.1787 88.118 78.7917C88.3827 79.3807 88.9176 79.4575 89.4155 79.5969C90.4883 79.8985 91.5638 80.1859 92.6337 80.4875C93.5328 80.7408 94.4263 81.0082 95.3226 81.2643C95.3766 81.2814 95.4478 81.2416 95.5587 81.2188C95.4023 80.8404 95.2856 80.5103 94.9811 80.2001C94.5287 79.7364 94.2072 79.153 93.8344 78.6181C93.5101 78.1572 93.2085 77.682 92.8613 77.2381C92.6479 76.9649 92.3691 76.7373 92.0703 76.4385C92.6052 76.1085 93.1345 75.7784 93.621 75.4796C93.9995 76.0715 94.3324 76.6235 94.6966 77.1527C95.4592 78.2681 96.2445 79.3693 97.0099 80.4818C97.3798 81.0196 97.7042 81.5887 98.0997 82.1066C98.2789 82.3399 98.5863 82.4822 98.8338 82.6671C98.6488 82.9516 97.5733 83.6545 96.7424 84.0073ZM101.315 80.516C100.857 79.9526 100.484 79.429 100.043 78.9652C98.8793 77.7389 97.6985 76.5267 96.5034 75.3288C96.051 74.8736 95.6327 74.3529 94.8161 74.2106C95.3994 73.6927 95.8945 73.2545 96.4437 72.768C96.7595 73.6244 97.4737 74.02 98.0314 74.5663C99.05 75.5593 100.029 76.5893 101.033 77.5995C101.551 78.123 101.975 78.7518 102.778 79.0478C102.334 79.6709 101.824 80.1376 101.315 80.516ZM110.747 68.8413C110.483 67.8483 109.621 67.8654 108.958 67.6207C108.064 67.2906 107.134 67.0573 106.218 66.787C105.97 66.713 105.711 66.6675 105.461 66.6077C105.429 66.6532 105.398 66.6988 105.367 66.7443C105.501 66.9378 105.626 67.137 105.771 67.3219C106.442 68.167 107.12 69.0092 107.797 69.8515C107.953 70.0449 108.107 70.2384 108.263 70.4291C108.511 70.7278 108.739 71.0551 109.367 70.8388C108.898 71.7892 108.409 72.5005 107.797 73.3399C107.692 72.5261 107.142 72.4664 106.65 72.3156C105.52 71.9656 104.397 71.5957 103.267 71.2457C103.019 71.1689 102.755 71.149 102.402 71.0835C102.493 71.2969 102.513 71.4107 102.578 71.4932C103.54 72.6883 104.522 73.8663 105.458 75.0784C105.694 75.3829 105.998 75.3544 106.383 75.4512C106.044 76.2223 105.56 76.8483 105.125 77.4885C105.023 77.4487 104.951 77.443 104.943 77.4145C104.559 76.2536 103.694 75.3943 102.968 74.4553C102.032 73.2432 101.045 72.0652 100.097 70.8616C99.8354 70.5315 99.5907 70.2242 99.07 70.3608C99.0557 70.3124 99.0415 70.264 99.0273 70.2157C99.3886 69.658 99.7529 69.1003 100.157 68.4743C100.624 69.2141 101.392 69.2425 102.103 69.4133C103.253 69.6893 104.394 70.0079 105.54 70.3067C105.751 70.3608 105.964 70.4063 106.32 70.4888C106.155 70.1844 106.09 69.9966 105.97 69.8486C104.968 68.6279 103.944 67.4243 102.96 66.1923C102.704 65.8708 102.373 65.8338 101.938 65.774C102.348 65.1366 102.715 64.5647 103.15 63.8847C103.386 64.505 103.864 64.6273 104.331 64.7582C105.976 65.2106 107.62 65.6716 109.271 66.1012C110.184 66.3402 111.058 66.767 112.182 66.6049C111.786 67.4756 111.314 68.1101 110.747 68.8413ZM114.173 58.8512C113.846 60.18 113.499 61.5031 113.194 62.8347C113.123 63.142 113.183 63.4806 113.183 63.879C112.566 63.6513 111.945 63.4266 111.248 63.1705C112.179 62.1518 112.102 60.8742 112.5 59.7503C112.662 59.2894 112.742 58.8028 112.879 58.2423C112.216 58.0004 111.59 57.7756 110.978 57.5537C110.554 58.2479 110.147 60.2596 110.255 60.9681C109.817 60.9681 109.015 60.7007 108.457 60.382C108.63 60.0548 108.858 59.7503 108.958 59.4117C109.177 58.6634 109.33 57.8951 109.524 57.07C109.091 56.8964 108.702 56.7313 108.306 56.5862C108.073 56.5009 107.828 56.444 107.586 56.3785C107.205 56.2732 107.097 56.3216 106.994 56.7057C106.681 57.898 106.366 59.0902 106.081 60.2881C105.99 60.6665 105.998 61.0706 105.956 61.523C105.358 61.3551 104.738 61.1787 103.975 60.9653C104.59 60.5897 104.675 60.0889 104.806 59.591C105.27 57.7927 105.765 56.0001 106.24 54.2359C106.69 54.4266 107.068 54.6201 107.467 54.7538C109.365 55.3912 111.268 56.02 113.175 56.6375C113.618 56.7826 114.079 56.8793 114.611 57.0216C114.469 57.6077 114.327 58.2309 114.173 58.8512ZM114.87 51.3877C114.856 52.8645 113.761 53.6128 112.295 53.2514C111.282 53.001 110.588 52.4433 110.235 51.4759C110.181 51.3308 110.11 51.1942 110.047 51.0633C109.333 51.1202 107.612 52.0421 106.445 52.9953C106.445 52.2043 106.445 51.456 106.445 50.6507C107.265 50.7987 107.868 50.2552 108.551 49.9309C108.815 49.8057 109.049 49.5723 109.322 49.5097C109.854 49.3874 109.939 49.0801 109.882 48.6191C109.843 48.2862 109.865 47.9476 109.86 47.6119C109.854 47.3472 109.723 47.1822 109.453 47.1651C108.437 47.1054 107.427 46.8436 106.314 47.1367C106.226 46.4623 106.22 45.8193 106.255 45.1307C106.994 45.4607 107.734 45.492 108.477 45.5575C109.948 45.6855 111.413 45.8876 112.882 46.0441C113.459 46.1067 114.042 46.1266 114.708 46.1721C114.722 46.2262 114.805 46.3883 114.808 46.5562C114.842 48.1667 114.885 49.7772 114.87 51.3877Z" fill="white"/>
<path d="M77.4453 36.5349C77.5221 36.626 77.6957 36.6402 77.8237 36.6914C77.8123 36.552 77.8209 36.4069 77.7867 36.276C77.7668 36.1991 77.6786 36.1337 77.6103 36.0768C76.7368 35.3256 75.7409 34.7935 74.58 34.6569C73.9825 34.5858 73.3707 34.6512 72.8301 35.1122C72.9467 35.1691 72.9695 35.189 72.9866 35.1862C73.0719 35.1663 73.1601 35.1435 73.2427 35.1179C73.9853 34.8988 74.7479 34.9273 75.4507 35.172C76.2218 35.4366 76.9104 35.889 77.4453 36.5349Z" fill="white"/>
</svg>
