<?xml version="1.0" encoding="utf-8"?>
<svg width="194" height="50" viewBox="0 0 194 50" fill="none" xmlns="http://www.w3.org/2000/svg">
<g clip-path="url(#clip0)">
<path d="M12.2314 33.7991C10.4862 35.619 8.86253 36.5888 7.03956 36.8917L7.05657 5.0249L9.12504 5.00047L9.12747 2.10815L8.73614 2.1106C6.06245 2.12525 3.38876 2.13991 0.712641 2.15457L0.326172 2.15701V5.10552L2.42623 5.08109L2.41894 37.4072C1.83559 37.4731 1.25467 37.5391 0.671321 37.605L0.326172 37.6441V40.7001L0.763684 40.6464C4.57004 40.1871 8.42259 39.7498 12.2289 39.3468L12.2265 41.3401L14.1175 41.1325L14.1273 30.9141L12.2362 31.0729L12.2314 33.7991Z" fill="black"/>
<path d="M35.7526 34.3489C35.1814 30.0617 34.6102 25.7575 34.039 21.4385C34.8508 21.4019 35.6651 21.3677 36.4769 21.3335L36.8488 21.3188L36.8536 18.4729L36.4477 18.4876C35.5046 18.5242 34.5616 18.5609 33.6185 18.5975C32.8382 12.8544 32.0604 7.08197 31.2802 1.27779L31.234 0.938232L29.2361 0.940675L29.1729 1.2558C27.9916 7.17235 26.8127 13.1182 25.6703 18.9346C24.754 18.9761 23.8376 19.0177 22.9213 19.0616L22.5494 19.0787L22.5446 21.993L22.9553 21.9711C23.6505 21.9344 24.3481 21.9002 25.0457 21.8636C24.6689 24.0524 24.3384 25.6671 23.8158 28.2345L23.5241 29.666C23.0477 32.2652 22.8265 33.3034 22.2869 35.4262C21.7303 35.4751 21.1761 35.5239 20.6195 35.5752L20.2646 35.607L20.2598 38.5359L20.6876 38.4944C22.8557 38.2868 25.0481 38.0865 27.2016 37.9008L27.5565 37.8691L27.5614 34.9767L27.1384 35.0109C26.6645 35.05 26.1905 35.0891 25.7165 35.1282C25.7335 30.907 25.8915 28.7548 26.7787 23.5687L27.0509 21.761C27.853 21.7219 28.6576 21.6828 29.4597 21.6437C30.0139 26.0091 30.5656 30.3573 31.1198 34.6909C30.6094 34.73 30.0965 34.7715 29.5861 34.8106L29.2263 34.8399L29.2215 37.7225L29.6444 37.6858C32.2184 37.4709 34.8289 37.2632 37.4054 37.0727L37.7651 37.0458L37.77 34.2024L37.3519 34.2317C36.8269 34.2732 36.2897 34.3098 35.7526 34.3489ZM27.5346 18.8516C27.819 17.0048 28.1058 15.1604 28.3902 13.3185C28.6235 15.1433 28.8545 16.9657 29.0854 18.7832C28.5676 18.8051 28.0523 18.8296 27.5346 18.8516Z" fill="black"/>
<path d="M51.4564 17.9866L51.0772 17.9964L51.0724 20.7861L51.4759 20.7739C52.4019 20.7446 53.3304 20.7153 54.2565 20.6884L54.2322 33.6306C53.5419 34.0238 53.2891 34.1582 52.5307 34.1973C51.8186 34.2364 51.3835 34.1167 51.0311 33.7796C49.7914 32.5972 49.2907 28.3369 49.3102 19.0761C49.3345 6.00204 50.5498 3.696 53.0898 3.68868C53.0922 3.68868 53.0922 3.68868 53.0947 3.68868C53.6999 3.68868 54.2614 3.94273 54.7596 4.44351C56.1183 5.80906 56.8937 8.78444 56.8864 12.605V13.0032L58.7823 12.9715L58.8042 0.852539L56.9083 0.854982L56.9059 2.71154C55.8607 1.58051 54.9881 0.857425 53.0728 0.857425C53.0655 0.857425 53.0558 0.857425 53.0485 0.857425C50.455 0.857425 48.3331 2.46726 46.9087 5.51348C45.4406 8.65252 44.692 13.2573 44.6798 19.1983C44.6628 27.372 46.075 33.0369 48.7584 35.5824C49.7769 36.5473 50.9508 37.0359 52.2512 37.0359C52.3582 37.0359 52.4651 37.0334 52.5745 37.0261C53.4787 36.9748 54.1933 36.6963 54.8812 36.4276C55.5763 36.1564 56.235 35.8975 57.0979 35.856C58.1479 35.8047 59.2004 35.7534 60.2504 35.707L60.6223 35.6899L60.6272 32.9246L60.2188 32.9417C59.7691 32.9612 59.3219 32.9808 58.8722 33.0003L58.8941 20.5565L60.2674 20.5198L60.6466 20.5027L60.6515 17.7472L60.2528 17.757C57.3434 17.8278 54.3853 17.9036 51.4564 17.9866Z" fill="black"/>
<path d="M80.4274 1.88355H80.0385L80.036 4.52425L82.2601 4.51937C82.4594 7.64376 82.892 17.5055 82.8896 22.1005C82.8847 29.1847 81.1031 33.2911 78.0016 33.3644C77.2262 33.379 76.6988 33.2129 76.2953 32.8172C75.4495 31.9866 75.0581 29.9835 75.063 26.5147L75.0873 4.53891L77.1558 4.53402L77.1582 1.89087H76.7669C74.0932 1.89332 71.4171 1.8982 68.7434 1.90309L68.3545 1.90553L68.3496 4.5609L70.4497 4.55357L70.4254 23.383C70.4181 28.6204 71.4559 32.2993 73.5123 34.3171C74.6595 35.4432 76.0984 36.0124 77.7877 36.0124C77.8533 36.0124 77.919 36.0124 77.9822 36.01C81.0958 35.9343 84.8074 33.4352 84.8147 21.9637C84.8171 17.6276 85.3737 8.08591 85.6848 4.51693L87.9453 4.51448L87.9477 1.8811H87.5564C85.1817 1.8811 82.8045 1.8811 80.4274 1.88355Z" fill="black"/>
<path d="M113.53 1.88355C111.282 1.88111 109.031 1.87866 106.783 1.87866H106.391L106.394 4.51204L108.581 4.51449C108.589 4.64396 108.598 4.79053 108.611 4.94931C108.769 7.37749 109.138 13.062 109.143 20.5419V21.2895C106.046 14.6987 102.899 8.03217 100.096 2.09852L99.9916 1.87378H94.6758V4.50472H95.6723L97.8283 9.39528V15.5415C97.8283 20.9719 97.5828 26.5635 97.0967 32.1601C96.5352 32.1601 95.9737 32.1601 95.4123 32.1601H95.0234V34.879H95.4147C97.6557 34.8765 99.9308 34.8814 102.174 34.8961L102.568 34.8985V32.1796L102.182 32.1772C101.586 32.1723 100.993 32.1699 100.4 32.1674C100.232 30.2351 99.7947 23.7714 99.7947 15.627V13.6873C103.183 21.1233 106.515 28.447 109.896 35.9294L110.062 36.2958L111.153 35.7633L111.141 20.5981C111.134 12.4366 111.671 6.70816 111.887 4.52182L113.931 4.5267L113.929 1.88599L113.53 1.88355Z" fill="black"/>
<path d="M129.893 32.8123C129.326 32.7903 128.76 32.7683 128.194 32.7464L128.15 4.57066L130.221 4.58043L130.216 1.91041H129.827C127.153 1.90552 124.48 1.90064 121.803 1.89575H121.412L121.417 4.54867L123.517 4.556L123.556 32.59C122.99 32.5729 122.421 32.5558 121.854 32.5387L121.453 32.5265L121.458 35.2674L121.835 35.2796C124.482 35.3626 127.185 35.4603 129.863 35.5727L130.269 35.5898L130.264 32.8319L129.893 32.8123Z" fill="black"/>
<path d="M148.769 0.872077L148.772 1.9567C145.519 1.94693 142.267 1.93715 139.015 1.92983L139.013 0.862306L137.119 0.859863L137.136 10.7631L139.032 10.79L139.025 6.90833C139.654 5.89699 140.634 4.90276 141.582 4.68046L141.635 33.3496C140.986 33.3154 140.337 33.2812 139.688 33.2494L139.278 33.2323L139.282 36.0123L139.649 36.0318C142.496 36.1857 145.386 36.3567 148.247 36.5399L148.662 36.5668L148.657 33.7527L148.293 33.7307C147.617 33.6892 146.944 33.6501 146.268 33.611L146.212 4.71222C147.167 4.95162 148.152 5.97761 148.781 7.01826L148.789 10.9512L150.682 10.9854L150.663 0.872077H148.769Z" fill="black"/>
<path d="M174.087 35.6974C173.536 35.6461 172.982 35.5972 172.43 35.5459C171.842 31.0047 171.253 26.4854 170.665 21.9857C171.462 22.0272 172.262 22.0688 173.059 22.1127L173.47 22.1347L173.465 19.2033L173.093 19.1862C172.141 19.1398 171.188 19.0958 170.235 19.0519C169.435 13.0962 168.633 7.17479 167.831 1.28511L167.785 0.948L165.784 0.945557L165.724 1.26313C164.603 6.99402 163.449 12.8593 162.289 18.705C161.383 18.6683 160.476 18.6293 159.567 18.5951L159.161 18.578L159.166 21.4361L159.538 21.4532C160.25 21.4849 160.96 21.5167 161.672 21.5484C161.278 23.8032 160.93 25.4619 160.374 28.1026L160.172 29.0699C159.715 31.5079 159.496 32.4924 158.971 34.4515C158.432 34.4124 157.89 34.3733 157.348 34.3343L156.93 34.3049L156.935 37.1557L157.294 37.1826C159.448 37.3463 161.64 37.5222 163.813 37.7054L164.236 37.742L164.231 34.8595L163.874 34.8302C163.378 34.7911 162.882 34.752 162.389 34.7129C162.389 30.5332 162.54 28.4348 163.412 23.3684L163.675 21.6413C164.479 21.6804 165.281 21.717 166.086 21.7561C166.652 26.2021 167.221 30.6627 167.787 35.1453C167.301 35.1038 166.813 35.0647 166.326 35.0231L165.904 34.9889L165.908 37.8813L166.263 37.913C168.854 38.1378 171.462 38.3796 174.017 38.6263L174.445 38.6679L174.44 35.7291L174.087 35.6974ZM164.144 18.7783C164.423 16.9608 164.703 15.1409 164.98 13.3185C165.218 15.158 165.456 16.9999 165.695 18.8467C165.177 18.8222 164.662 18.8003 164.144 18.7783Z" fill="black"/>
<path d="M189.065 17.0902C188.768 16.5625 188.471 16.0349 188.163 15.4926C187.895 15.0724 187.647 14.6864 187.419 14.3322C185.781 11.7892 185.166 10.839 185.166 8.44743C185.166 6.74966 185.64 5.218 186.408 4.45095C186.707 4.15048 187.023 3.99903 187.341 3.99903C187.344 3.99903 187.346 3.99903 187.349 3.99903C188.471 4.0088 189.159 5.47939 190.144 7.90757V11.7575L192.037 11.8186V0.244385H190.144V1.8591C189.23 1.27771 188.467 0.938151 187.351 0.935708C183.537 0.943036 181.265 4.87356 181.27 11.4472C181.272 15.4999 182.58 18.4191 184.84 22.098C185.244 22.7136 185.645 23.3292 186.041 23.9399C188.865 28.574 189.291 29.7832 189.291 33.1787C189.291 36.0539 188.522 37.1752 188.063 37.5856C187.735 37.8812 187.366 38.0058 186.962 37.9618C185.88 37.8445 184.952 36.5718 183.654 33.4279L183.652 29.7221L181.758 29.5658L181.768 40.4364L183.659 40.6465V39.215C184.838 40.3558 185.817 40.8932 186.906 41.0178C187.086 41.0398 187.263 41.0495 187.436 41.0495C188.408 41.0495 189.288 40.7076 190.051 40.026C191.964 38.3233 193.019 34.5101 193.019 29.2922C193.024 24.6801 192.132 21.9368 189.065 17.0902Z" fill="black"/>
<path d="M11.9003 40.2676C11.9003 39.6032 11.9028 38.9412 11.9028 38.2767C7.93113 38.6944 3.96435 39.1439 0 39.6227C0 38.8679 0 38.113 0 37.3582C0.697589 37.28 1.39518 37.1994 2.09277 37.1237C2.0952 26.0992 2.09763 15.0746 2.10006 4.04766C1.40004 4.05499 0.70002 4.06476 0 4.07454C0 3.3539 0 2.63326 0 1.91262C2.67369 1.89552 5.34737 1.88087 8.02349 1.86621C8.02349 2.56975 8.02349 3.27329 8.02106 3.97682C7.33076 3.98415 6.64047 3.99148 5.9526 4.00125C5.94774 14.9012 5.94045 25.8036 5.93559 36.7035C8.15718 36.4666 9.99959 35.3428 11.9076 33.3202C11.9076 32.4774 11.9101 31.6371 11.9101 30.7943C12.2795 30.7625 12.6514 30.7308 13.0209 30.7015C13.0184 33.8478 13.0136 36.9967 13.0111 40.143C12.6417 40.1846 12.2698 40.2261 11.9003 40.2676Z" fill="#C8102E"/>
<path d="M28.9056 36.6671C28.908 35.9684 28.908 35.2698 28.9104 34.5711C29.557 34.5198 30.2059 34.4685 30.8525 34.4197C30.2667 29.832 29.6809 25.2273 29.0951 20.6054C28.067 20.6543 27.0364 20.7031 26.0082 20.7544C25.9013 21.4628 25.7944 22.1713 25.6874 22.8797C24.7881 28.1367 24.6252 30.2717 24.6179 34.9229C25.2329 34.8716 25.8478 34.8203 26.4628 34.769C26.4628 35.4701 26.4603 36.1736 26.4603 36.8747C24.2874 37.0628 22.1144 37.2631 19.9414 37.4683C19.9414 36.755 19.9438 36.0417 19.9438 35.3284C20.5904 35.2698 21.2369 35.2136 21.8835 35.1574C22.4911 32.7878 22.7148 31.7325 23.196 29.1016C23.9325 25.4667 24.3165 23.659 24.8002 20.8155C23.9422 20.8595 23.0818 20.9034 22.2238 20.9474C22.2238 20.239 22.2262 19.5281 22.2262 18.8197C23.2446 18.7733 24.2631 18.7244 25.2815 18.6805C26.4676 12.6369 27.6562 6.6446 28.8424 0.701173C29.2872 0.701173 29.7344 0.69873 30.1792 0.69873C30.974 6.62017 31.7713 12.5123 32.5661 18.3727C33.6258 18.3311 34.688 18.2896 35.7478 18.2481C35.7453 18.937 35.7453 19.6234 35.7429 20.3123C34.7877 20.3538 33.8324 20.3953 32.8796 20.4369C33.4873 25.0221 34.0925 29.5877 34.7002 34.1363C35.3589 34.0899 36.0176 34.041 36.6738 33.997C36.6714 34.6835 36.6714 35.3699 36.669 36.0564C34.0828 36.2445 31.4942 36.4497 28.9056 36.6671ZM27.7121 9.89357C27.2625 12.7957 26.8104 15.7075 26.3607 18.6292C27.1774 18.5925 27.9941 18.5583 28.8108 18.5241C28.4462 15.6538 28.0791 12.7761 27.7121 9.89357Z" fill="#C8102E"/>
<path d="M56.5773 0.61792C56.9492 0.61792 57.321 0.61792 57.6929 0.61792C57.6856 4.39699 57.6808 8.1785 57.6735 11.9576C57.3016 11.9649 56.9297 11.9698 56.5578 11.9771C56.5676 6.41477 54.9196 2.66258 52.3723 2.6699C49.6354 2.67723 48.2305 4.73899 48.2038 18.4482C48.177 32.6484 49.3826 34.0946 51.8376 33.9602C52.7612 33.9114 53.048 33.7184 53.9084 33.2298C53.9157 28.7057 53.9255 24.1791 53.9328 19.655C52.8706 19.6867 51.8108 19.7185 50.7486 19.7527C50.7511 19.0833 50.7511 18.4164 50.7535 17.7471C53.6824 17.664 56.6137 17.5883 59.5426 17.5199C59.5426 18.1795 59.5402 18.839 59.5402 19.5011C58.9569 19.5157 58.3711 19.5304 57.7877 19.5475C57.7804 23.9592 57.7731 28.371 57.7659 32.7828C58.3492 32.7559 58.935 32.7315 59.5183 32.7046C59.5183 33.3642 59.5159 34.0262 59.5159 34.6857C58.4634 34.7346 57.4134 34.7834 56.361 34.8347C54.5453 34.9251 53.556 35.9072 51.8351 36.0049C47.3433 36.2785 44.3294 30.4059 44.3537 18.5703C44.378 6.46851 47.5086 0.608149 52.348 0.620363C54.4796 0.61792 55.1797 1.55108 56.5773 3.09251C56.5748 2.26928 56.5748 1.4436 56.5773 0.61792Z" fill="#C8102E"/>
<path d="M84.6144 3.48839C84.3252 6.58835 83.7151 16.6699 83.7102 21.326C83.7054 30.3278 81.372 34.8813 77.2593 34.9814C72.7311 35.0963 70.0914 30.9752 70.1011 22.7477C70.1084 16.3402 70.1182 9.93259 70.1255 3.52503C69.4254 3.52747 68.7254 3.52992 68.0254 3.53236C68.0254 2.90699 68.0278 2.28407 68.0278 1.6587C70.7015 1.65382 73.3776 1.65137 76.0513 1.64649C76.0513 2.26697 76.0489 2.88745 76.0489 3.50793C75.3586 3.51037 74.6683 3.51037 73.9804 3.51282C73.9707 10.9684 73.9634 18.4239 73.9537 25.8794C73.9464 31.7325 75.028 33.1762 77.2909 33.1224C80.4799 33.0492 82.5557 29.2677 82.5605 21.4677C82.563 16.6846 82.0939 6.16818 81.9067 3.49572C81.1751 3.49816 80.441 3.49816 79.7094 3.5006C79.7094 2.88256 79.7094 2.26453 79.7118 1.64405C82.089 1.6416 84.4661 1.63916 86.8433 1.63916C86.8433 2.25476 86.8433 2.87279 86.8433 3.48839C86.0995 3.48595 85.3582 3.48839 84.6144 3.48839Z" fill="#C8102E"/>
<path d="M108.233 3.49083C107.511 3.49083 106.789 3.48839 106.067 3.48839C106.067 2.87279 106.067 2.25476 106.067 1.63916C108.316 1.6416 110.566 1.6416 112.815 1.64405C112.815 2.26209 112.815 2.88257 112.817 3.5006C112.149 3.49816 111.48 3.49816 110.812 3.49572C110.622 5.3938 110.022 11.2981 110.029 19.9653C110.034 24.939 110.036 29.9126 110.041 34.8862C109.871 34.9692 109.701 35.0523 109.531 35.1354C105.912 27.1253 102.295 19.1836 98.6829 11.2591C98.6829 12.5049 98.6829 13.7508 98.6829 14.9966C98.6829 23.461 99.1642 30.3376 99.3246 31.9279C100.037 31.9304 100.749 31.9352 101.461 31.9401C101.461 32.585 101.461 33.2299 101.461 33.8749C99.208 33.8602 96.9523 33.8529 94.6991 33.8578C94.6991 33.2128 94.6991 32.5679 94.6991 31.923C95.3797 31.923 96.0603 31.923 96.7409 31.923C96.8673 30.4622 97.5065 23.505 97.5041 14.9111C97.5041 12.8347 97.5041 10.7583 97.5041 8.68186C96.7384 6.94989 95.9752 5.21548 95.212 3.4835C94.9252 3.4835 94.6384 3.4835 94.3516 3.4835C94.3516 2.86791 94.3516 2.25231 94.3516 1.63672C95.912 1.63672 97.4701 1.63672 99.0305 1.63672C102.29 8.54018 105.554 15.4534 108.821 22.4106C108.821 21.5776 108.821 20.7446 108.819 19.9116C108.809 11.3763 108.328 5.12753 108.233 3.49083Z" fill="#C8102E"/>
<path d="M121.133 34.251C121.133 33.5988 121.131 32.9466 121.131 32.2943C121.831 32.3163 122.533 32.3359 123.233 32.3603C123.221 22.7502 123.206 13.14 123.194 3.52991C122.494 3.52747 121.794 3.52502 121.094 3.52258C121.094 2.89966 121.092 2.27673 121.092 1.65381C123.765 1.65869 126.439 1.66358 129.113 1.66847C129.113 2.29627 129.115 2.92408 129.115 3.55434C128.425 3.55189 127.735 3.54945 127.044 3.54457C127.059 13.1938 127.074 22.843 127.088 32.4922C127.778 32.5166 128.469 32.5435 129.161 32.5704C129.161 33.2275 129.164 33.8871 129.164 34.5442C126.488 34.4318 123.812 34.3341 121.133 34.251Z" fill="#C8102E"/>
<path d="M148.448 1.71744C148.448 1.3559 148.446 0.99436 148.446 0.63282C148.818 0.63282 149.19 0.63282 149.562 0.635262C149.566 3.74255 149.574 6.84984 149.579 9.95713C149.207 9.9498 148.835 9.94247 148.463 9.93759C148.46 8.71861 148.458 7.49964 148.456 6.28066C147.656 4.91756 146.348 3.64728 145.106 3.63995C145.126 13.5432 145.145 23.4489 145.165 33.3522C145.962 33.3986 146.757 33.445 147.554 33.4939C147.556 34.1705 147.556 34.8448 147.559 35.5214C144.693 35.3358 141.825 35.1672 138.957 35.0133C138.954 34.3464 138.954 33.6795 138.952 33.0151C139.737 33.0542 140.524 33.0957 141.31 33.1372C141.29 23.2975 141.273 13.4577 141.254 3.61552C140.012 3.6082 138.711 4.84916 137.916 6.16829C137.919 7.36528 137.921 8.56471 137.924 9.7617C137.552 9.75682 137.18 9.75193 136.808 9.7446C136.803 6.70327 136.796 3.66194 136.791 0.620605C137.163 0.620605 137.535 0.620605 137.907 0.620605C137.907 0.974817 137.909 1.33147 137.909 1.68568C141.421 1.69545 144.936 1.70523 148.448 1.71744Z" fill="#C8102E"/>
<path d="M165.585 36.8869C165.585 36.1834 165.582 35.4823 165.582 34.7788C166.229 34.8325 166.875 34.8862 167.524 34.94C166.924 30.1862 166.324 25.4544 165.721 20.7447C164.69 20.6934 163.662 20.6445 162.632 20.5956C162.527 21.287 162.422 21.9783 162.318 22.6696C161.438 27.7776 161.283 29.8467 161.29 34.4343C161.905 34.4807 162.52 34.5296 163.135 34.5784C163.137 35.2771 163.137 35.9757 163.14 36.6744C160.967 36.4912 158.791 36.3177 156.618 36.1516C156.616 35.4628 156.616 34.7739 156.613 34.085C157.26 34.1314 157.909 34.1778 158.555 34.2267C159.156 32.0135 159.377 31.0143 159.848 28.5031C160.575 25.0367 160.952 23.295 161.426 20.537C160.568 20.4979 159.707 20.4588 158.849 20.4198C158.847 19.7284 158.847 19.0371 158.845 18.3433C159.863 18.3849 160.881 18.4264 161.9 18.4679C163.067 12.5905 164.233 6.66903 165.4 0.696289C165.847 0.696289 166.292 0.698732 166.739 0.698732C167.556 6.69346 168.37 12.7224 169.184 18.7879C170.244 18.8368 171.306 18.8881 172.366 18.9394C172.366 19.6527 172.369 20.3685 172.369 21.0818C171.413 21.0305 170.461 20.9792 169.505 20.9303C170.128 25.689 170.75 30.4672 171.37 35.2698C172.026 35.3284 172.682 35.387 173.338 35.4481C173.338 36.1638 173.341 36.8796 173.341 37.5953C170.757 37.3511 168.171 37.1117 165.585 36.8869ZM164.296 9.89357C163.857 12.7761 163.417 15.6513 162.977 18.5168C163.793 18.551 164.61 18.5876 165.427 18.6218C165.05 15.7051 164.673 12.7957 164.296 9.89357Z" fill="#C8102E"/>
<path d="M182.557 37.6197C182.557 38.2719 182.557 38.9242 182.559 39.5764C182.19 39.5349 181.818 39.4934 181.448 39.4543C181.446 36.0905 181.444 32.7243 181.439 29.3605C181.811 29.3898 182.18 29.4215 182.552 29.4533C182.552 30.5941 182.554 31.7349 182.554 32.8757C183.954 36.2835 184.941 37.5831 186.21 37.7199C187.637 37.8786 188.969 36.3397 188.969 32.5459C188.966 28.9647 188.427 27.6407 185.661 23.1019C185.257 22.4814 184.856 21.8658 184.453 21.2502C182.163 17.5225 180.948 14.7108 180.945 10.8144C180.94 4.54368 183.038 0.701094 186.635 0.693766C187.909 0.696209 188.704 1.19699 189.817 1.94938C189.817 1.29959 189.817 0.649795 189.817 0C190.189 0 190.561 0 190.933 0C190.933 3.59341 190.933 7.18439 190.933 10.7778C190.561 10.7656 190.191 10.7534 189.82 10.7412C189.82 9.55882 189.82 8.37649 189.82 7.19416C188.738 4.52414 188.006 2.9827 186.638 2.97049C185.238 2.96316 184.059 5.064 184.061 7.8122C184.064 10.6654 184.924 11.6084 187.122 15.0674C187.418 15.5926 187.715 16.1203 188.011 16.6479C190.969 21.3235 191.92 24.04 191.92 28.6594C191.92 36.1687 189.764 40.4241 186.244 39.9966C185.034 39.8549 183.954 39.1367 182.557 37.6197Z" fill="#C8102E"/>
<path d="M46.8113 44.4426C46.8113 44.3473 46.7773 44.2863 46.7117 44.2618C46.6461 44.235 46.5537 44.2179 46.4395 44.2105V44.0542H49.9396C50.2896 44.0542 50.5861 44.0737 50.8365 44.1128C51.0844 44.1519 51.2861 44.2228 51.4417 44.3278C51.5972 44.4328 51.7115 44.577 51.7844 44.7626C51.8573 44.9483 51.8938 45.1852 51.8938 45.471C51.8938 45.7495 51.8184 45.9963 51.6677 46.2186C51.517 46.4384 51.3372 46.607 51.1257 46.7193C51.4392 46.8317 51.6774 46.9954 51.8379 47.2055C51.9983 47.418 52.0785 47.7185 52.0785 48.1069C52.0785 48.6174 51.9156 49.0229 51.5899 49.321C51.2642 49.619 50.7319 49.768 49.993 49.768H46.4395V49.6117C46.5561 49.6043 46.6461 49.5848 46.7117 49.5604C46.7773 49.5335 46.8113 49.4749 46.8113 49.3796V44.4426ZM49.7548 46.3896C50.0562 46.3896 50.2604 46.3285 50.3649 46.2088C50.4694 46.0866 50.5229 45.9401 50.5229 45.7666C50.5229 45.5077 50.4597 45.3391 50.3309 45.261C50.2021 45.1828 50.01 45.1437 49.7548 45.1437H48.3694V46.3896H49.7548ZM49.6382 48.676C49.9104 48.676 50.1389 48.6247 50.3236 48.5197C50.5107 48.4147 50.6031 48.2339 50.6031 47.975C50.6031 47.8015 50.5739 47.6672 50.5156 47.5719C50.4573 47.4766 50.3819 47.4082 50.2896 47.3642C50.1972 47.3203 50.0927 47.2958 49.9809 47.2861C49.8691 47.2787 49.7548 47.2739 49.6382 47.2739H48.3694V48.676H49.6382Z" fill="black"/>
<path d="M58.0819 44.4426C58.0819 44.3473 58.0551 44.2863 57.9992 44.2618C57.9458 44.235 57.8874 44.2179 57.8242 44.2105V44.0542H61.5577C62.1386 44.0542 62.6028 44.2057 62.948 44.5086C63.2931 44.8115 63.4657 45.261 63.4657 45.8595C63.4657 46.326 63.3442 46.6974 63.0987 46.9709C62.8556 47.2445 62.5469 47.4571 62.175 47.6134L63.2105 49.3527C63.2494 49.4211 63.3053 49.4822 63.3782 49.5335C63.4511 49.5848 63.5313 49.6117 63.6164 49.6117V49.768H61.266V49.6117C61.3195 49.6117 61.3802 49.6019 61.4458 49.5799C61.5115 49.5579 61.5455 49.5139 61.5455 49.4431C61.5455 49.3991 61.5042 49.2916 61.424 49.1182C61.3438 48.9448 61.249 48.7591 61.1444 48.5588C61.0399 48.3609 60.9378 48.1704 60.8431 47.9872C60.7458 47.8064 60.6851 47.6891 60.6632 47.6378H59.5475V49.3771C59.5475 49.4724 59.5767 49.5335 59.635 49.5579C59.6934 49.5848 59.7639 49.6019 59.8514 49.6092V49.7656H57.8485V49.6092C57.8947 49.6019 57.9458 49.5823 57.9992 49.5579C58.0527 49.531 58.0819 49.4724 58.0819 49.3771V44.4426ZM61.2004 46.5459C61.4483 46.5459 61.6452 46.4873 61.7886 46.37C61.932 46.2528 62.0049 46.0769 62.0049 45.8448C62.0049 45.6445 61.9441 45.4784 61.825 45.344C61.7035 45.2097 61.4702 45.1437 61.1201 45.1437H59.55V46.5459H61.2004Z" fill="black"/>
<path d="M74.3085 48.6247C74.4641 48.6247 74.5637 48.5172 74.6099 48.2998H74.7485V50H74.6318C74.5929 49.8778 74.5516 49.8094 74.5103 49.7923C74.4665 49.7752 74.4009 49.7655 74.3061 49.7655H69.1191V49.6091C69.2042 49.6018 69.2796 49.5822 69.3452 49.5578C69.4108 49.5309 69.4448 49.4723 69.4448 49.377V44.4401C69.4448 44.3448 69.4108 44.2837 69.3452 44.2593C69.2796 44.2324 69.2042 44.2153 69.1191 44.208V44.0517H74.4009C74.4471 44.0517 74.4933 44.0346 74.5394 44.0004C74.5856 43.9662 74.6099 43.888 74.6099 43.7659H74.7485V45.5052H74.6099C74.6099 45.3757 74.5856 45.2902 74.5394 45.2511C74.4933 45.212 74.4471 45.1925 74.4009 45.1925H71.0053V46.2453H73.1929C73.2391 46.2453 73.2852 46.2258 73.3314 46.1867C73.3776 46.1476 73.4019 46.067 73.4019 45.9473H73.5405V47.6353H73.4019C73.4019 47.5132 73.3776 47.4326 73.3314 47.3959C73.2852 47.3568 73.2391 47.3373 73.1929 47.3373H71.0053V48.6222H74.3085V48.6247Z" fill="black"/>
<path d="M82.1809 44.2081C82.1104 44.2081 82.0423 44.2228 81.9718 44.2545C81.9013 44.2863 81.8673 44.3473 81.8673 44.4426C81.8673 44.4768 81.8868 44.5721 81.9257 44.7284C81.9645 44.8848 82.0156 45.068 82.0764 45.2805C82.1371 45.493 82.2052 45.7227 82.2732 45.9694C82.3437 46.2161 82.4118 46.4555 82.4774 46.6827C82.543 46.9123 82.6014 47.12 82.6524 47.3056C82.7035 47.4913 82.7351 47.6281 82.7521 47.716H82.7764C82.791 47.6207 82.8298 47.4815 82.8858 47.3007C82.9441 47.12 83.0121 46.9148 83.0899 46.69C83.1677 46.4653 83.2479 46.2283 83.333 45.9816C83.4181 45.7349 83.4983 45.5077 83.5712 45.3001C83.6441 45.0924 83.7049 44.9092 83.7511 44.7553C83.7972 44.599 83.8215 44.4964 83.8215 44.4426C83.8215 44.3473 83.7875 44.2838 83.717 44.2545C83.6465 44.2252 83.5785 44.2081 83.508 44.2081V44.0518H85.8681V44.2081C85.7903 44.2081 85.7174 44.2228 85.6469 44.2545C85.5765 44.2863 85.5424 44.3473 85.5424 44.4426C85.5424 44.4695 85.5667 44.5599 85.6178 44.7162C85.6688 44.8726 85.7296 45.0607 85.8049 45.2805C85.8778 45.5004 85.9581 45.7422 86.0431 46.0011C86.1282 46.2601 86.2108 46.5068 86.2935 46.7413C86.3737 46.9758 86.4442 47.181 86.5025 47.3594C86.5609 47.5377 86.5973 47.6549 86.6119 47.716H86.6362C86.6508 47.6207 86.6848 47.4815 86.7359 47.2934C86.7869 47.1078 86.8452 46.9026 86.9109 46.6754C86.9765 46.4506 87.0445 46.2186 87.115 45.9816C87.1855 45.7446 87.2512 45.5175 87.3119 45.3074C87.3727 45.0949 87.4237 44.9116 87.4626 44.7553C87.5015 44.599 87.5209 44.4964 87.5209 44.4426C87.5209 44.3473 87.4869 44.2838 87.4164 44.2545C87.3459 44.2252 87.273 44.2081 87.1952 44.2081V44.0518H89.1252V44.2081C89.0158 44.2252 88.9477 44.2643 88.9161 44.3254C88.8845 44.3864 88.8529 44.4646 88.8238 44.5599C88.7995 44.6454 88.7508 44.8237 88.6731 45.0924C88.5953 45.3611 88.5029 45.6714 88.3935 46.028C88.2842 46.3822 88.1748 46.756 88.063 47.1444C87.9512 47.5328 87.8442 47.8968 87.7421 48.229C87.64 48.5637 87.5598 48.8422 87.4966 49.0669C87.4335 49.2917 87.4043 49.4162 87.4043 49.4431C87.4043 49.531 87.5137 49.5848 87.73 49.6117V49.768H85.2751V49.6117C85.4987 49.5848 85.6129 49.5286 85.6129 49.4431C85.6129 49.3991 85.5886 49.3014 85.5424 49.1451C85.4962 48.9887 85.4379 48.8031 85.3674 48.5857C85.2969 48.3683 85.2216 48.1362 85.1414 47.8846C85.0612 47.633 84.9809 47.396 84.9032 47.1713C84.8254 46.9465 84.7598 46.7462 84.7063 46.5728C84.6528 46.3993 84.6164 46.2772 84.6018 46.2088H84.5775C84.5629 46.2772 84.5264 46.3993 84.473 46.5728C84.4195 46.7462 84.3514 46.9441 84.2761 47.1713C84.1983 47.396 84.1181 47.6354 84.0379 47.8846C83.9577 48.1362 83.8799 48.3707 83.8118 48.5857C83.7413 48.8031 83.683 48.9887 83.6368 49.1451C83.5906 49.3014 83.5663 49.4016 83.5663 49.4431C83.5663 49.4944 83.5955 49.5311 83.6538 49.553C83.7122 49.575 83.7827 49.5946 83.8702 49.6117V49.768H81.4614V49.6117C81.6704 49.5848 81.775 49.5286 81.775 49.4431C81.775 49.4089 81.7409 49.2648 81.6704 49.0156C81.6 48.764 81.5124 48.4586 81.4079 48.0995C81.3034 47.7404 81.1892 47.3496 81.0652 46.9294C80.9412 46.5093 80.8246 46.1184 80.7152 45.7544C80.6058 45.3904 80.5159 45.0802 80.443 44.8261C80.3701 44.5721 80.3287 44.4206 80.3214 44.3791C80.3069 44.3107 80.2801 44.2643 80.2461 44.2423C80.2121 44.2203 80.1732 44.2105 80.1367 44.2105V44.0542H82.1833V44.2081H82.1809Z" fill="black"/>
<path d="M96.9072 44.2081C96.7906 44.2179 96.7006 44.235 96.635 44.2594C96.5694 44.2863 96.5354 44.3449 96.5354 44.4402V49.3771C96.5354 49.4724 96.5694 49.5335 96.635 49.5579C96.7006 49.5848 96.793 49.6019 96.9072 49.6092V49.7656H94.6055V49.6092C94.7221 49.6019 94.8121 49.5823 94.8777 49.5579C94.9433 49.531 94.9773 49.4724 94.9773 49.3771V44.4402C94.9773 44.3449 94.9433 44.2838 94.8777 44.2594C94.8121 44.2325 94.7197 44.2154 94.6055 44.2081V44.0518H96.9072V44.2081Z" fill="black"/>
<path d="M108.724 49.3771C108.724 49.4724 108.755 49.5335 108.816 49.5579C108.877 49.5848 108.955 49.6019 109.05 49.6092V49.7656H106.898V49.6092C106.959 49.6092 107.032 49.6019 107.115 49.5823C107.195 49.5652 107.236 49.5164 107.236 49.4407C107.236 49.3625 107.151 49.2184 106.981 49.0058C106.811 48.7933 106.592 48.5319 106.325 48.2192C106.057 47.9066 105.756 47.5597 105.423 47.1737C105.09 46.7877 104.759 46.3798 104.434 45.9474L104.409 45.9743V49.3771C104.409 49.4724 104.439 49.5335 104.497 49.5579C104.555 49.5848 104.626 49.6019 104.713 49.6092V49.7656H102.725V49.6092C102.803 49.6019 102.871 49.5823 102.929 49.5579C102.988 49.531 103.017 49.4724 103.017 49.3771V44.4402C103.017 44.3449 102.985 44.2838 102.924 44.2594C102.861 44.2325 102.788 44.2154 102.703 44.2081V44.0518H105.472V44.2081C105.418 44.2179 105.362 44.235 105.309 44.2594C105.255 44.2863 105.229 44.3449 105.229 44.4402C105.229 44.4573 105.292 44.5477 105.421 44.7064C105.549 44.8677 105.712 45.068 105.914 45.3098C106.116 45.5517 106.339 45.8204 106.59 46.116C106.838 46.4115 107.086 46.7047 107.333 47.0003V44.4402C107.333 44.3449 107.302 44.2838 107.241 44.2594C107.18 44.2325 107.103 44.2154 107.008 44.2081V44.0518H109.054V44.2081C108.962 44.2179 108.884 44.235 108.821 44.2594C108.758 44.2863 108.729 44.3449 108.729 44.4402V49.3771H108.724Z" fill="black"/>
<path d="M120.403 48.4291C120.403 48.5171 120.422 48.5928 120.461 48.6636C120.5 48.732 120.554 48.7687 120.624 48.7687H120.729V48.925C120.542 49.0301 120.33 49.1351 120.089 49.2426C119.849 49.3501 119.589 49.4478 119.309 49.5357C119.03 49.6212 118.743 49.6896 118.449 49.736C118.155 49.7825 117.858 49.8069 117.564 49.8069C117.114 49.8069 116.699 49.7556 116.32 49.6505C115.94 49.5455 115.615 49.3769 115.347 49.1375C115.08 48.9006 114.871 48.5952 114.72 48.2288C114.569 47.8599 114.494 47.4227 114.494 46.9097C114.494 46.3967 114.579 45.9594 114.749 45.5906C114.92 45.2217 115.148 44.9188 115.435 44.6818C115.722 44.4449 116.05 44.2665 116.417 44.1493C116.786 44.032 117.168 43.9734 117.562 43.9734C117.856 43.9734 118.125 43.9929 118.371 44.032C118.614 44.0711 118.83 44.1175 119.018 44.1688C119.205 44.2201 119.358 44.2665 119.477 44.3056C119.596 44.3447 119.676 44.3642 119.715 44.3642C119.776 44.3642 119.817 44.352 119.837 44.3252C119.856 44.2983 119.88 44.269 119.912 44.2348L120.051 44.2616L119.445 45.9765L119.307 45.8983V45.808C119.307 45.7298 119.253 45.6565 119.149 45.5881C119.044 45.5197 118.913 45.4562 118.76 45.4C118.604 45.3438 118.439 45.2999 118.266 45.2705C118.091 45.2412 117.936 45.2241 117.795 45.2241C117.554 45.2241 117.326 45.2534 117.109 45.3145C116.893 45.3756 116.704 45.4757 116.546 45.6125C116.388 45.7518 116.261 45.9277 116.166 46.1377C116.074 46.3503 116.028 46.6068 116.028 46.9097C116.028 47.2224 116.074 47.4886 116.166 47.7085C116.259 47.9283 116.388 48.1116 116.55 48.2532C116.713 48.3949 116.903 48.5024 117.119 48.5708C117.336 48.6392 117.574 48.6759 117.829 48.6759C118.023 48.6759 118.213 48.6612 118.4 48.6294C118.587 48.6001 118.772 48.5488 118.959 48.4804V47.6352H117.982C117.89 47.6352 117.831 47.6743 117.807 47.7525C117.783 47.8306 117.773 47.8941 117.773 47.9479H117.635V46.3381H117.773C117.773 46.3894 117.785 46.4553 117.807 46.5335C117.831 46.6117 117.89 46.6507 117.982 46.6507H120.401V48.4291H120.403Z" fill="black"/>
<path d="M138.873 46.2477L138.71 46.1573C138.718 46.1231 138.727 46.0889 138.74 46.0522C138.752 46.018 138.757 45.979 138.757 45.935C138.757 45.8837 138.708 45.8226 138.611 45.7542C138.514 45.6858 138.39 45.6223 138.239 45.5661C138.088 45.5099 137.918 45.4611 137.726 45.4171C137.536 45.3731 137.344 45.3511 137.15 45.3511C136.934 45.3511 136.712 45.3829 136.486 45.4415C136.26 45.5026 136.061 45.5954 135.881 45.7225C135.704 45.8495 135.555 46.0083 135.439 46.2037C135.322 46.3991 135.264 46.6361 135.264 46.9146C135.264 47.1833 135.322 47.4178 135.439 47.6181C135.555 47.8184 135.701 47.9821 135.881 48.1067C136.059 48.2337 136.26 48.3265 136.486 48.3876C136.71 48.4487 136.931 48.478 137.15 48.478C137.383 48.478 137.602 48.4462 137.806 48.3803C138.01 48.3143 138.195 48.2386 138.353 48.1457C138.511 48.0554 138.635 47.965 138.725 47.8721C138.815 47.7818 138.859 47.7134 138.859 47.6718V47.5546C138.859 47.5033 138.854 47.4642 138.847 47.4373L138.975 47.3469L140.081 49.1204L139.943 49.2108C139.872 49.1155 139.811 49.0691 139.756 49.0691C139.724 49.0691 139.641 49.1082 139.505 49.1839C139.369 49.2621 139.189 49.3501 138.963 49.4478C138.737 49.5455 138.472 49.631 138.166 49.6994C137.86 49.7678 137.519 49.802 137.148 49.802C136.72 49.802 136.304 49.7556 135.898 49.6603C135.49 49.565 135.128 49.4038 134.812 49.1742C134.493 48.9446 134.238 48.6441 134.044 48.2703C133.849 47.899 133.752 47.4447 133.752 46.9072C133.752 46.3796 133.849 45.9277 134.044 45.5563C134.238 45.185 134.493 44.8797 134.812 44.6476C135.13 44.4131 135.492 44.2421 135.898 44.1346C136.307 44.0271 136.722 43.9734 137.148 43.9734C137.403 43.9734 137.651 43.9978 137.891 44.0442C138.132 44.0931 138.353 44.1419 138.555 44.1932C138.757 44.2445 138.932 44.2958 139.077 44.3423C139.226 44.3911 139.33 44.4131 139.391 44.4131C139.43 44.4131 139.464 44.4009 139.496 44.374C139.527 44.3471 139.549 44.3227 139.566 44.2958L139.705 44.3471L138.873 46.2477Z" fill="black"/>
<path d="M144.756 43.9734C144.98 43.9734 145.206 44.0076 145.432 44.0784C145.658 44.1468 145.865 44.2543 146.047 44.4009C146.229 44.5475 146.38 44.7356 146.494 44.9652C146.608 45.1948 146.667 45.466 146.667 45.7811C146.667 46.1011 146.608 46.3747 146.494 46.5994C146.38 46.8266 146.232 47.0098 146.047 47.154C145.862 47.2981 145.658 47.4007 145.432 47.4666C145.206 47.5326 144.98 47.5619 144.756 47.5619C144.533 47.5619 144.306 47.5302 144.08 47.4666C143.854 47.4031 143.648 47.2981 143.466 47.154C143.281 47.0098 143.133 46.8242 143.018 46.5994C142.904 46.3723 142.846 46.1011 142.846 45.7811C142.846 45.466 142.904 45.1948 143.018 44.9652C143.133 44.7356 143.281 44.5475 143.466 44.4009C143.648 44.2543 143.854 44.1468 144.08 44.0784C144.306 44.0076 144.53 43.9734 144.756 43.9734ZM144.756 44.8211C144.627 44.8211 144.506 44.843 144.392 44.887C144.277 44.931 144.175 44.9921 144.09 45.0727C144.003 45.1533 143.935 45.2486 143.888 45.3609C143.84 45.4733 143.816 45.6028 143.816 45.7469C143.816 45.891 143.84 46.0205 143.888 46.1329C143.937 46.2452 144.005 46.3429 144.09 46.4211C144.178 46.5017 144.277 46.5628 144.392 46.6068C144.506 46.6507 144.627 46.6727 144.756 46.6727C144.89 46.6727 145.011 46.6507 145.123 46.6068C145.235 46.5628 145.335 46.5017 145.422 46.4211C145.51 46.3405 145.578 46.2452 145.624 46.1329C145.672 46.0205 145.697 45.891 145.697 45.7469C145.697 45.6028 145.672 45.4757 145.624 45.3609C145.575 45.2486 145.507 45.1508 145.422 45.0727C145.335 44.9921 145.235 44.931 145.123 44.887C145.011 44.843 144.887 44.8211 144.756 44.8211Z" fill="black"/>
<path d="M144.755 49.6163C145.028 49.6163 145.249 49.3943 145.249 49.1204C145.249 48.8465 145.028 48.6245 144.755 48.6245C144.483 48.6245 144.262 48.8465 144.262 49.1204C144.262 49.3943 144.483 49.6163 144.755 49.6163Z" fill="black"/>
</g>
<defs>
<clipPath id="clip0">
<rect width="193.023" height="50" fill="white"/>
</clipPath>
</defs>
</svg>
